<?xml version="1.0" standalone="no"?>
<!DOCTYPE svg PUBLIC "-//W3C//DTD SVG 1.1//EN" "http://www.w3.org/Graphics/SVG/1.1/DTD/svg11.dtd" >
<svg>
<metadata>
Created by FontForge 20090914 at Thu Jul 25 14:28:43 2019
 By www-data
Copyrighted (c) 1981, 1997 by and the property of Linotype-Hell AG and/or its subsidiaries. All Rights Reserved. All Cyrillic characters designed by DoubleAlex. Helvetica is a registered Trademark of Linotype-Hell AG and/or its subsidiaries.
</metadata>
<defs>
<font id="HelveticaNeueCyr-Light" horiz-adv-x="556" >
  <font-face 
    font-family="HelveticaNeueCyr"
    font-weight="300"
    font-stretch="normal"
    units-per-em="1000"
    panose-1="2 0 5 3 4 0 0 2 0 4"
    ascent="800"
    descent="-200"
    x-height="514"
    cap-height="712"
    bbox="-33 -214 1051 902"
    underline-thickness="50"
    underline-position="-50"
    unicode-range="U+0020-U+E001"
  />
<missing-glyph horiz-adv-x="1000" 
 />
    <glyph glyph-name=".notdef" horiz-adv-x="1000" 
 />
    <glyph glyph-name="space" unicode=" " horiz-adv-x="278" 
 />
    <glyph glyph-name="exclam" unicode="!" horiz-adv-x="241" 
d="M154 712v-209l-15 -324h-37l-15 324v209h67zM158 99v-99h-75v99h75z" />
    <glyph glyph-name="quotedbl" unicode="&#x22;" horiz-adv-x="370" 
d="M131 411h-40l-7 280h54zM279 411h-39l-7 280h53z" />
    <glyph glyph-name="numbersign" unicode="#" 
d="M146 0h-54l39 211h-113l-1 48h123l32 174h-113v48h122l39 210h54l-39 -210h137l39 210h54l-39 -210h114v-48h-123l-32 -174h113l1 -48h-123l-39 -211h-54l39 211h-137zM331 259l32 174h-137l-32 -174h137z" />
    <glyph glyph-name="dollar" unicode="$" 
d="M292 782v-72.002c66 -0.666992 117.833 -17.334 155.5 -50.001s56.5 -77.667 56.5 -135v-10h-61c0 48 -12.833 83.167 -38.5 105.5s-63.167 34.833 -112.5 37.5v-273c155.333 -22.667 233 -89.667 233 -201c0 -60 -21.333 -108.167 -64 -144.5s-99 -54.5 -169 -54.5v-87
h-37v87c-75.333 1.33301 -132.833 20.833 -172.5 58.5s-59.5 91.834 -59.5 162.501v5h62v-12c0 -101.333 56.667 -155.666 170 -162.999v298c-68.667 14.667 -121 35.334 -157 62.001s-54 68 -54 124c0 54.667 18.833 99 56.5 133s89.167 53 154.5 57v72h37zM255 392.998
l0.000976562 263.999c-46.667 -3.33301 -83.334 -16.666 -110.001 -39.999s-40 -54 -40 -92c0 -73.333 50 -117.333 150 -132zM292.001 325.997l-0.00195312 -290.999c52.667 0.666992 94.334 14.5 125.001 41.5s46 62.5 46 106.5c0 24 -4.5 44.5 -13.5 61.5
s-22.667 30.667 -41 41s-35.666 18.166 -51.999 23.499s-37.833 11 -64.5 17z" />
    <glyph glyph-name="percent" unicode="%" horiz-adv-x="889" 
d="M678 728l-424 -760h-52l425 760h51zM229 708c50.667 0 89.334 -15.668 116.001 -47.001s40 -76.666 40 -135.999c0 -61.333 -13.833 -109 -41.5 -143s-66.834 -51 -117.501 -51c-51.333 0 -90.5 16.333 -117.5 49s-40.5 79.667 -40.5 141
c0 58.667 14.167 104.5 42.5 137.5s67.833 49.5 118.5 49.5zM227 664.999c-69.333 0 -103.999 -49.333 -103.999 -148c0 -46 8.83301 -81.333 26.5 -106s43.167 -37 76.5 -37s59.166 13 77.499 39s27.5 62.667 27.5 110c0 94.667 -34.667 142 -104 142zM669.001 363.999
c50.667 0 89.334 -15.668 116.001 -47.001s40 -76.666 40 -135.999c0 -61.333 -13.833 -109 -41.5 -143s-66.834 -51 -117.501 -51c-51.333 0 -90.5 16.333 -117.5 49s-40.5 79.667 -40.5 141c0 58.667 14.167 104.5 42.5 137.5s67.833 49.5 118.5 49.5zM667.001 320.998
c-69.333 0 -103.999 -49.333 -103.999 -148c0 -46 8.83301 -81.333 26.5 -106s43.167 -37 76.5 -37s59.166 13 77.499 39s27.5 62.667 27.5 110c0 94.667 -34.667 142 -104 142z" />
    <glyph glyph-name="ampersand" unicode="&#x26;" horiz-adv-x="611" 
d="M535 315c-1.33301 -26.667 -5.99902 -55.5 -13.999 -86.5s-17.667 -56.833 -29 -77.5l128 -151h-80l-81 99c-50 -75.333 -119.333 -113 -208 -113c-62.667 0 -113.834 17.833 -153.501 53.5s-59.5 82.167 -59.5 139.5c0 86 58.667 158.333 176 217l-41 53.5
c-10 13.667 -20.167 31.834 -30.5 54.501s-15.5 44 -15.5 64c0 42 14.833 76.333 44.5 103s68.167 40 115.5 40c45.333 0 82.5 -13.333 111.5 -40s43.5 -60.334 43.5 -101.001c0 -40 -12.667 -74.333 -38 -103s-59.333 -56.667 -102 -84l150 -185
c14 36.667 22 75.667 24 117h59zM268.001 424c76 43.333 114.003 90.667 114.003 142c0 26.667 -9.33301 49 -28 67s-41.667 27 -69 27c-28.667 0 -52.334 -8.66699 -71.001 -26s-28 -39 -28 -65c0 -18 4.16699 -35 12.5 -51s20.666 -33.667 36.999 -53
s27.166 -33 32.499 -41zM248.004 356.001c-51.333 -32.667 -85.001 -57 -101.001 -73c-30.667 -30.667 -46 -65 -46 -103c0 -39.333 15 -72.833 45 -100.5s66.667 -41.5 110 -41.5c68.667 0 124.334 34.333 167.001 103z" />
    <glyph glyph-name="quotesingle" unicode="'" horiz-adv-x="278" 
d="M159 411h-40l-7 280h54z" />
    <glyph glyph-name="parenleft" unicode="(" horiz-adv-x="241" 
d="M242 -191l-49.999 -0.00195312c-48 84.667 -83.5 160.834 -106.5 228.501s-34.5 142.5 -34.5 224.5c0 76.667 12.667 157.334 38 242.001s59.666 156 102.999 214h50c-85.333 -136 -128 -288.333 -128 -457c0 -162 42.667 -312.667 128 -452z" />
    <glyph glyph-name="parenright" unicode=")" horiz-adv-x="241" 
d="M192 262c0 -82 -11.499 -156.831 -34.499 -224.498s-58.5 -143.834 -106.5 -228.501h-50c85.333 139.333 128 290 128 452c0 168.667 -42.667 321 -128 457h50c43.333 -58 77.666 -129.333 102.999 -214s38 -165.334 38 -242.001z" />
    <glyph glyph-name="asterisk" unicode="*" horiz-adv-x="352" 
d="M325 606l-117 -39l72 -98l-31 -24l-74 101l-73 -100l-33 24l72 97l-114 39l13 38l115 -41v122h41v-122l115 41z" />
    <glyph glyph-name="plus" unicode="+" horiz-adv-x="600" 
d="M272 0v217h-221v49h221v217h54v-217h222v-49h-222v-217h-54z" />
    <glyph glyph-name="comma" unicode="," horiz-adv-x="278" 
d="M181 103v-74c0 -44 -5.66699 -79.667 -17 -107s-35 -47.333 -71 -60v42c29.333 12 44.333 44 45 96h-39v103h82z" />
    <glyph glyph-name="hyphen" unicode="-" horiz-adv-x="370" 
d="M311 305v-61h-251v61h251z" />
    <glyph glyph-name="period" unicode="." horiz-adv-x="278" 
d="M181 103v-103h-82v103h82z" />
    <glyph glyph-name="slash" unicode="/" horiz-adv-x="333" 
d="M350 729l-312 -746h-53l313 746h52z" />
    <glyph glyph-name="zero" unicode="0" 
d="M277 703c163.333 0 245 -121 245 -363c0 -237.333 -81.333 -356 -244 -356s-244 117 -244 351c0 245.333 81 368 243 368zM278 647c-31.333 0 -58.5 -7.16602 -81.5 -21.499s-40.5 -31.833 -52.5 -52.5s-21.667 -46.334 -29 -77.001s-11.833 -58 -13.5 -82
s-2.5 -51 -2.5 -81c0 -196.667 59.667 -295 179 -295c118.667 0 178 101.333 178 304c0 203.333 -59.333 305 -178 305z" />
    <glyph glyph-name="one" unicode="1" 
d="M345 698l0.000976562 -697.998h-66v520h-181v48c25.333 0.666992 43.666 1.5 54.999 2.5s25.333 2.83301 42 5.5s28.834 6.66699 36.501 12s16.167 12.666 25.5 21.999s16.666 21.166 21.999 35.499s10.333 31.833 15 52.5h51z" />
    <glyph glyph-name="two" unicode="2" 
d="M497 56l-0.00292969 -56.001h-461c1.33301 18.667 3.5 36.167 6.5 52.5s8.33301 31.833 16 46.5l20 38c5.66699 10.667 15.334 22.667 29.001 36l30.5 30c6.66699 6.66699 19.167 16.5 37.5 29.5s30.833 21.667 37.5 26l43 28.5l50 33.5
c9.33301 6.33301 24 17.666 44 33.999s34.333 30.833 43 43.5s17 28.5 25 47.5s12 38.833 12 59.5c0 43.333 -14.167 78.166 -42.5 104.499s-65.833 39.5 -112.5 39.5c-56.667 0 -97.5 -17.667 -122.5 -53s-37.5 -81.666 -37.5 -138.999h-62v9c0 74 20 132.167 60 174.5
s95 63.5 165 63.5c65.333 0 117.666 -18 156.999 -54s59 -84 59 -144c0 -19.333 -2.83301 -38.166 -8.5 -56.499s-11.5 -34.166 -17.5 -47.499s-16.667 -28.166 -32 -44.499l-35.5 -37c-8.33301 -8.33301 -23.166 -20 -44.499 -35s-35.666 -24.833 -42.999 -29.5l-46 -30
c-26 -16.667 -43.833 -28.334 -53.5 -35.001s-24.334 -18.167 -44.001 -34.5s-34.167 -32.5 -43.5 -48.5s-15.666 -33.667 -18.999 -53c2.66699 0 5.83398 0.166992 9.50098 0.5s6.16699 0.5 7.5 0.5h373z" />
    <glyph glyph-name="three" unicode="3" 
d="M50 475c0.666992 72 21 128 61 168s95.333 60 166 60c62.667 0 113.334 -16.5 152.001 -49.5s58 -76.167 58 -129.5c0 -38 -10.5 -70.667 -31.5 -98s-49.833 -45.333 -86.5 -54c46 -9.33301 81.333 -28.833 106 -58.5s37 -67.167 37 -112.5
c0 -64.667 -22.167 -117 -66.5 -157s-102.5 -60 -174.5 -60c-72.667 0 -130.5 20.167 -173.5 60.5s-64.5 94.5 -64.5 162.5v16h61v-3c0 -56.667 15.833 -101 47.5 -133s75.5 -48 131.5 -48c51.333 0 93.333 14.5 126 43.5s49 66.167 49 111.5
c0 52.667 -17.167 90.334 -51.5 113.001s-78.5 34 -132.5 34c-12.667 0 -24 -0.333008 -34 -1v53h26c34.667 0 62.667 3.66699 84 11c55.333 20.667 83 59.667 83 117c0 39.333 -13.5 70.666 -40.5 93.999s-63.167 35 -108.5 35c-50.667 0 -90.334 -15.167 -119.001 -45.5
s-44 -73.5 -46 -129.5h-59z" />
    <glyph glyph-name="four" unicode="4" 
d="M517 226v-52h-106v-174h-58v174h-323v59l328 467h53v-474h106zM353 226v276c0 44.667 0.333008 83 1 115c-73.333 -114 -164.333 -244.333 -273 -391h272z" />
    <glyph glyph-name="five" unicode="5" 
d="M474 691l-0.000976562 -56.001h-303l-50 -242c36.667 46.667 89.667 70 159 70c66.667 0 121.5 -22 164.5 -66s64.5 -100.333 64.5 -169c0 -69.333 -22.667 -127.166 -68 -173.499s-103 -69.5 -173 -69.5c-69.333 0 -125 19.5 -167 58.5s-63.667 91.167 -65 156.5h62
c2.66699 -49.333 19.167 -88.666 49.5 -117.999s70.5 -44 120.5 -44c50.667 0 92.834 17.667 126.501 53s50.5 79.666 50.5 132.999c0 54.667 -16.667 99.167 -50 133.5s-76 51.5 -128 51.5c-67.333 0 -119 -27 -155 -81l-56 2l69 361h349z" />
    <glyph glyph-name="six" unicode="6" 
d="M503 522l-63.001 0.00292969c-6 40 -21.833 71.5 -47.5 94.5s-58.834 34.5 -99.501 34.5c-32 0 -60 -7.33301 -84 -22s-42.333 -32.334 -55 -53.001s-23.167 -46.834 -31.5 -78.501s-13.666 -59.334 -15.999 -83.001s-4.16602 -51.167 -5.49902 -82.5
c18.667 39.333 44.834 69.5 78.501 90.5s72.5 31.5 116.5 31.5c65.333 0 119 -21.667 161 -65s63 -98.333 63 -165c0 -69.333 -22 -126.666 -66 -171.999s-100 -68 -168 -68c-42 0 -80 9.33301 -114 28s-61.667 45 -83 79c-32 52 -48 131 -48 237
c0 121.333 21.833 214.5 65.5 279.5s106.5 97.5 188.5 97.5c58.667 0 106.167 -15.833 142.5 -47.5s58.166 -76.834 65.499 -135.501zM283.999 401.003c-48.667 0 -88.998 -16.833 -120.998 -50.5s-48 -76.167 -48 -127.5c0 -53.333 16.167 -97.333 48.5 -132
s73.166 -52 122.499 -52s89.833 17 121.5 51s47.5 77.333 47.5 130c0 53.333 -15.833 96.833 -47.5 130.5s-72.834 50.5 -123.501 50.5z" />
    <glyph glyph-name="seven" unicode="7" 
d="M502 691l-0.000976562 -57.001c-82 -86.667 -147.667 -184 -197 -292s-78.333 -222 -87 -342h-68c6 113.333 35.333 226.333 88 339s120.334 210.334 203.001 293.001h-390v59h451z" />
    <glyph glyph-name="eight" unicode="8" 
d="M180 378c-36 10 -64 28.167 -84 54.5s-30 58.166 -30 95.499c0 54 19.333 97.333 58 130s90 49 154 49s115.167 -16 153.5 -48s57.5 -74.333 57.5 -127c0 -78.667 -37.667 -130 -113 -154c44 -9.33301 78.667 -29.5 104 -60.5s38 -69.167 38 -114.5
c0 -66.667 -21.5 -119.334 -64.5 -158.001s-101.833 -58 -176.5 -58c-72.667 0 -130.667 19 -174 57s-65 89 -65 153c0 46.667 12.333 85.834 37 117.501s59.667 52.834 105 63.501zM278 651c-46 0 -82.499 -11.332 -109.499 -33.999s-40.5 -53.334 -40.5 -92.001
c0 -38 13.667 -68.167 41 -90.5s63.666 -33.5 108.999 -33.5c46 0 82.333 11.167 109 33.5s40 52.833 40 91.5c0 39.333 -13.167 70 -39.5 92s-62.833 33 -109.5 33zM276.001 351.001c-52.667 0 -94.833 -14.001 -126.5 -42.001s-47.5 -64.667 -47.5 -110
c0 -48 16 -86.5 48 -115.5s74.667 -43.5 128 -43.5s95.833 14.333 127.5 43s47.5 67.334 47.5 116.001c0 46 -16 82.833 -48 110.5s-75 41.5 -129 41.5z" />
    <glyph glyph-name="nine" unicode="9" 
d="M52 167l61.002 0.00292969c6 -39.333 22.667 -70.5 50 -93.5s61.333 -34.5 102 -34.5c110 0 171 85 183 255c1.33301 15.333 2 32.666 2 51.999v19c-35.333 -86 -99.333 -129 -192 -129c-65.333 0 -119 21.667 -161 65s-63 98.666 -63 165.999
c0 69.333 22 126.5 66 171.5s99.667 67.5 167 67.5c84.667 0 149 -33.333 193 -100c34.667 -53.333 52 -134.333 52 -243c0 -72 -6.66699 -133 -20 -183c-16.667 -62.667 -44.834 -110.834 -84.501 -144.501s-87.5 -50.5 -143.5 -50.5c-59.333 0 -108.333 16.5 -147 49.5
s-60.334 77.167 -65.001 132.5zM265.002 651.003c-48 0 -87.833 -17.167 -119.5 -51.5s-47.5 -77.5 -47.5 -129.5c0 -52.667 15.667 -95.5 47 -128.5s71.666 -49.5 120.999 -49.5c50 0 90.833 16.5 122.5 49.5s47.5 75.5 47.5 127.5c0 52.667 -16.167 96.167 -48.5 130.5
s-73.166 51.5 -122.499 51.5z" />
    <glyph glyph-name="colon" unicode=":" horiz-adv-x="278" 
d="M181 103v-103h-82v103h82zM181 501v-103h-82v103h82z" />
    <glyph glyph-name="semicolon" unicode=";" horiz-adv-x="278" 
d="M181 501v-103h-82v103h82zM181 103v-74c0 -44 -5.66699 -79.667 -17 -107s-35 -47.333 -71 -60v42c29.333 12 44.333 44 45 96h-39v103h82z" />
    <glyph glyph-name="less" unicode="&#x3c;" horiz-adv-x="600" 
d="M48 233v54l497 200v-54l-435 -173l435 -172v-53z" />
    <glyph glyph-name="equal" unicode="=" horiz-adv-x="600" 
d="M51 320v48h497v-48h-497zM51 137v48h497v-48h-497z" />
    <glyph glyph-name="greater" unicode="&#x3e;" horiz-adv-x="600" 
d="M552 233l-497 -198v53l435 172l-435 173v54l497 -200v-54z" />
    <glyph glyph-name="question" unicode="?" horiz-adv-x="537" 
d="M49 490c0 68.667 18.833 125.169 56.5 169.502s92.5 66.5 164.5 66.5c62 0 112.167 -17 150.5 -51s57.5 -78.333 57.5 -133c0 -22.667 -2.66699 -43.167 -8 -61.5s-15.5 -37 -30.5 -56s-26.333 -32.333 -34 -40l-47.5 -45.5c-28 -26.667 -45.5 -49.834 -52.5 -69.501
s-10.5 -50.834 -10.5 -93.501h-60c0 56 6 96 18 120s39.667 57.333 83 100l13 13c42 42 63 85 63 129c0 39.333 -13.167 71.333 -39.5 96s-60.833 37 -103.5 37c-54 0 -94 -17.333 -120 -52s-39 -77.667 -39 -129h-61zM302 100.002v-100h-75v100h75z" />
    <glyph glyph-name="at" unicode="@" horiz-adv-x="800" 
d="M704 118l19.999 -25.9961c-96.667 -70 -198.334 -105 -305.001 -105c-108.667 0 -200.667 32.667 -276 98s-113 151.666 -113 258.999c0 108 38.833 198.333 116.5 271s174.167 109 289.5 109c98.667 0 179 -27.333 241 -82s93 -125.334 93 -212.001
c0 -70 -20.167 -130.833 -60.5 -182.5s-87.833 -77.5 -142.5 -77.5c-22.667 0 -41 6.33301 -55 19s-21 29.334 -21 50.001c0 6.66699 2.33301 19 7 37c-36 -70.667 -85 -106 -147 -106c-39.333 0 -71.333 13.667 -96 41s-37 62.666 -37 105.999c0 64 19.667 120 59 168
s85.333 72 138 72c33.333 0 60.833 -8.33301 82.5 -25s35.167 -40 40.5 -70l24 81h50l-57 -190c-15.333 -50 -23 -84.667 -23 -104c0 -13.333 4.33301 -24 13 -32s20.334 -12 35.001 -12c39.333 0 75 23.167 107 69.5s48 98.166 48 155.499c0 76.667 -27.667 139 -83 187
s-127.666 72 -216.999 72c-104.667 0 -192.334 -33.167 -263.001 -99.5s-106 -148.5 -106 -246.5c0 -96.667 34.5 -174.334 103.5 -233.001s152.5 -88 250.5 -88c100.667 0 195.334 32 284.001 96zM512.999 426.004c0 28.667 -8 51.833 -24 69.5s-37 26.5 -63 26.5
c-38 0 -72.333 -21 -103 -63s-46 -89 -46 -141c0 -34.667 8 -62.167 24 -82.5s37.333 -30.5 64 -30.5c29.333 0 55.833 13.333 79.5 40s41 56.5 52 89.5s16.5 63.5 16.5 91.5z" />
    <glyph glyph-name="A" unicode="A" horiz-adv-x="630" 
d="M354 714l284 -714h-75l-86 224h-326l-87 -224h-73l288 714h75zM456 279l-140 371l-144 -371h284z" />
    <glyph glyph-name="B" unicode="B" horiz-adv-x="667" 
d="M72 712h305.001c64 0 117.167 -14.667 159.5 -44s63.5 -74 63.5 -134c0 -38 -11.833 -71.667 -35.5 -101s-52.834 -48 -87.501 -56c44 -8.66699 80.167 -27 108.5 -55s42.5 -67.333 42.5 -118c0 -66 -22.833 -116.5 -68.5 -151.5s-103.167 -52.5 -172.5 -52.5h-315v712z
M138.001 654l-0.000976562 -257h226c47.333 0 87.333 10 120 30s49 52.667 49 98c0 26.667 -5.16699 49 -15.5 67s-25.166 31.333 -44.499 40s-38.833 14.5 -58.5 17.5s-42.5 4.5 -68.5 4.5h-208zM138 342l-0.00195312 -284.001h213c28.667 0 53.834 1.66699 75.501 5
s43.334 9.83301 65.001 19.5s38.5 24.667 50.5 45s18 45.5 18 75.5c0 28.667 -6.16699 52.834 -18.5 72.501s-29.833 34 -52.5 43s-45 15.167 -67 18.5s-47 5 -75 5h-209z" />
    <glyph glyph-name="C" unicode="C" horiz-adv-x="704" 
d="M671 273c-7.33301 -88 -38.834 -158.166 -94.501 -210.499s-126.167 -78.5 -211.5 -78.5c-98.667 0 -177.667 33.667 -237 101s-89 157.333 -89 270c0 105.333 29.5 194 88.5 266s140.167 108 243.5 108c72 0 136.5 -21.167 193.5 -63.5s89.5 -98.166 97.5 -167.499h-68
c-10.667 52.667 -36.334 94.5 -77.001 125.5s-90 46.5 -148 46.5c-78.667 0 -142.167 -28.833 -190.5 -86.5s-72.5 -133.834 -72.5 -228.501s23.833 -170.5 71.5 -227.5s110.834 -85.5 189.501 -85.5c68.667 0 123.334 21.167 164.001 63.5s65 98.166 73 167.499h67z" />
    <glyph glyph-name="D" unicode="D" horiz-adv-x="685" 
d="M71 712h257.998c106.667 0 186.334 -30.833 239.001 -92.5s79 -145.167 79 -250.5c0 -108 -25.667 -196.5 -77 -265.5s-129.666 -103.5 -234.999 -103.5h-264v712zM138.998 654v-596h179c174 0 261 102.333 261 307c0 90.667 -21.5 161.5 -64.5 212.5
s-104.833 76.5 -185.5 76.5h-190z" />
    <glyph glyph-name="E" unicode="E" horiz-adv-x="593" 
d="M566 712v-58h-426v-257h399v-57h-399v-282h430v-58h-498v712h494z" />
    <glyph glyph-name="F" unicode="F" horiz-adv-x="537" 
d="M525 712v-58h-387v-256h344v-58h-344v-340h-67v712h454z" />
    <glyph glyph-name="G" unicode="G" horiz-adv-x="741" 
d="M683 362l0.000976562 -362.003h-45l-12 101l-2 32c-21.333 -47.333 -53.833 -84.166 -97.5 -110.499s-94.5 -39.5 -152.5 -39.5c-99.333 0 -180 33.833 -242 101.5s-93 155.834 -93 264.501c0 112 31.167 203 93.5 273s143.833 105 244.5 105
c76.667 0 142.334 -20.833 197.001 -62.5s87.667 -99.167 99 -172.5h-65c-10 54.667 -36.5 97.834 -79.5 129.501s-93.167 47.5 -150.5 47.5c-82.667 0 -148.667 -29 -198 -87s-74 -135.333 -74 -232c0 -94 24.833 -169.167 74.5 -225.5s115.167 -84.5 196.5 -84.5
c63.333 0 117.166 18.5 161.499 55.5s71.166 86.167 80.499 147.5c2.66699 18.667 4 39.667 4 63h-244v56h304z" />
    <glyph glyph-name="H" unicode="H" horiz-adv-x="704" 
d="M632 712v-712h-67v344h-426v-344h-68v712h68v-310h426v310h67z" />
    <glyph glyph-name="I" unicode="I" horiz-adv-x="222" 
d="M145 712v-712h-68v712h68z" />
    <glyph glyph-name="J" unicode="J" horiz-adv-x="500" 
d="M430 712v-518.998c0 -139.333 -67 -209 -201 -209c-72 0 -124.167 18.333 -156.5 55s-48.5 91 -48.5 163c0 9.33301 0.333008 18.666 1 27.999h65v-21c0 -56.667 9.5 -99 28.5 -127s55.833 -42 110.5 -42c53.333 0 89 14.667 107 44s27 71.666 27 126.999v501h67z" />
    <glyph glyph-name="K" unicode="K" horiz-adv-x="648" 
d="M643 712l-321 -291l337 -421h-87l-298 375l-136 -124v-251h-67v712h67v-383l415 383h90z" />
    <glyph glyph-name="L" unicode="L" horiz-adv-x="537" 
d="M541 58v-58h-468v712h68v-654h400z" />
    <glyph glyph-name="M" unicode="M" horiz-adv-x="833" 
d="M763 712v-711.999h-65v430c0 69.333 2.66699 144 8 224c-14 -44 -29.667 -87 -47 -129l-210 -525h-61l-213 519c-14.667 35.333 -30.334 79 -47.001 131c5.33301 -78 8 -150.667 8 -218v-432h-65v712h92l207 -508c6.66699 -16.667 23 -61.334 49 -134.001
c3.33301 8.66699 10.333 28.667 21 60s19.334 55.333 26.001 72l204 510h93z" />
    <glyph glyph-name="N" unicode="N" horiz-adv-x="704" 
d="M632 712v-712.001h-75l-331 478c-44 64 -75.333 114.667 -94 152c3.33301 -47.333 5 -104 5 -170v-460h-66v712h75l333 -483c37.333 -54 68.333 -103.667 93 -149c-3.33301 104.667 -5 167.334 -5 188.001v444h65z" />
    <glyph glyph-name="O" unicode="O" horiz-adv-x="741" 
d="M370 729c99.333 0 180.167 -34.668 242.5 -104.001s93.5 -159.666 93.5 -270.999c0 -110.667 -31 -200.167 -93 -268.5s-143.333 -102.5 -244 -102.5c-100 0 -180.667 34.333 -242 103s-92 158.667 -92 270s30.833 201.333 92.5 270s142.5 103 242.5 103z
M369.001 669.999c-79.333 0 -143.501 -28.668 -192.501 -86.001s-73.5 -132.666 -73.5 -225.999c0 -95.333 24.333 -171.833 73 -229.5s113.334 -86.5 194.001 -86.5s145.5 28.667 194.5 86s73.5 133 73.5 227s-24.667 170 -74 228s-114.333 87 -195 87z" />
    <glyph glyph-name="P" unicode="P" horiz-adv-x="630" 
d="M75 712h305c68.667 0 123.167 -17.167 163.5 -51.5s60.5 -83.833 60.5 -148.5c0 -68 -20.333 -119.667 -61 -155s-95.667 -53 -165 -53h-235v-304h-68v712zM143 654l-0.000976562 -292.999h216c52.667 0 95.334 11.833 128.001 35.5s49 60.5 49 110.5
c0 49.333 -15 86.166 -45 110.499s-71.667 36.5 -125 36.5h-223z" />
    <glyph glyph-name="Q" unicode="Q" horiz-adv-x="741" 
d="M701 -5l-34 -43l-112 85c-46.667 -36.667 -108 -55 -184 -55c-100 0 -181 34.167 -243 102.5s-93 157.5 -93 267.5c0 111.333 31 201.5 93 270.5s142.667 103.5 242 103.5s180 -34.333 242 -103s93 -158 93 -268c0 -118.667 -35 -213 -105 -283zM549 110
c59.333 66 89 148 89 246c0 92.667 -24.667 167.667 -74 225s-114 86 -194 86c-79.333 0 -143.666 -28.833 -192.999 -86.5s-74 -133.167 -74 -226.5c-0.666992 -95.333 23.666 -171.5 72.999 -228.5s115.333 -85.5 198 -85.5c49.333 0 92.333 12.667 129 38l-94 71l35 43z
" />
    <glyph glyph-name="R" unicode="R" horiz-adv-x="667" 
d="M72 712l322.005 0.000976562c67.333 0 121.166 -15.833 161.499 -47.5s60.5 -79.834 60.5 -144.501c0 -46 -12.167 -84.167 -36.5 -114.5s-58.5 -50.833 -102.5 -61.5c43.333 -8 74.166 -24.5 92.499 -49.5s29.166 -62.167 32.499 -111.5
c0 -1.33301 0.333008 -10.333 1 -27s1.5 -31 2.5 -43s2.66699 -26.333 5 -43s5.66602 -31 9.99902 -43s9.5 -21 15.5 -27h-77c-6 7.33301 -10.333 20.333 -13 39s-4.66699 42.667 -6 72s-2 45 -2 47c-4.66699 64.667 -20.334 107.5 -47.001 128.5s-74 31.5 -142 31.5h-209
v-318h-68v712zM140.005 654.001v-281.998h201c29.333 0 54.666 1.66699 75.999 5s42.833 9.66602 64.5 18.999s38.334 24.166 50.001 44.499s17.5 45.5 17.5 75.5c0 92 -59 138 -177 138h-232z" />
    <glyph glyph-name="S" unicode="S" horiz-adv-x="630" 
d="M569 507l-66 0.00585938c-2.66699 52.667 -21.5 92.834 -56.5 120.501s-82.167 41.5 -141.5 41.5c-56 0 -99.667 -11.667 -131 -35s-47 -56.333 -47 -99c0 -15.333 1.83301 -28.833 5.5 -40.5s10.334 -21.834 20.001 -30.501s18.667 -15.834 27 -21.501
s21.833 -11.334 40.5 -17.001s33.667 -10 45 -13s29.333 -7.16699 54 -12.5l65 -15c16.667 -4 35.667 -9.33301 57 -16s38.5 -13.334 51.5 -20.001s26.5 -15 40.5 -25s24.667 -21 32 -33s13.5 -26.167 18.5 -42.5s7.5 -34.5 7.5 -54.5
c0 -48.667 -13.5 -89.334 -40.5 -122.001s-59.833 -55.334 -98.5 -68.001s-81.667 -19 -129 -19c-88.667 0 -158.167 21.667 -208.5 65s-75.5 103 -75.5 179v6h65c0 -64.667 19.833 -113.334 59.5 -146.001s94.5 -49 164.5 -49c61.333 0 109.666 13 144.999 39s53 62 53 108
c0 44.667 -16.833 76.5 -50.5 95.5s-97.167 39.5 -190.5 61.5c-30 6.66699 -52.167 12 -66.5 16s-33.5 11 -57.5 21s-41.833 20.833 -53.5 32.5s-22.167 27.5 -31.5 47.5s-14 43.333 -14 70c0 60 22.167 107.5 66.5 142.5s104.833 52.5 181.5 52.5
c77.333 0 139 -18.5 185 -55.5s70.667 -91.5 74 -163.5z" />
    <glyph glyph-name="T" unicode="T" 
d="M562 712v-58h-250v-654h-68v654h-250v58h568z" />
    <glyph glyph-name="U" unicode="U" horiz-adv-x="685" 
d="M620 712v-445c0 -92 -22.833 -162 -68.5 -210s-114.167 -72 -205.5 -72c-93.333 0 -163.5 24 -210.5 72s-70.5 118.667 -70.5 212v443h68v-426c0 -82 15.5 -143.167 46.5 -183.5s86.833 -60.5 167.5 -60.5c41.333 0 75.666 5.66699 102.999 17s48.333 28.333 63 51
s24.834 48 30.501 76s8.5 61.667 8.5 101v425h68z" />
    <glyph glyph-name="V" unicode="V" horiz-adv-x="593" 
d="M601 712l-264 -711.999h-79l-267 712h76l186 -512c17.333 -48 32.333 -95.333 45 -142c4 12 11 34.167 21 66.5s18.333 57.166 25 74.499l185 513h72z" />
    <glyph glyph-name="W" unicode="W" horiz-adv-x="907" 
d="M904 712l-197.001 -711.999h-73l-145 501c-18.667 66 -30.667 115 -36 147c-5.33301 -17.333 -12.166 -42.333 -20.499 -75s-14.5 -56 -18.5 -70l-142 -503h-74l-197 712h71l133 -494c8.66699 -32.667 19.667 -81.667 33 -147c7.33301 41.333 19.333 90.333 36 147
l141 494h77l144 -501c18 -62 29.333 -108.667 34 -140c2.66699 10.667 7.5 32.167 14.5 64.5s12.833 57.166 17.5 74.499l134 502h68z" />
    <glyph glyph-name="X" unicode="X" horiz-adv-x="574" 
d="M569 712l-243 -346.002l257 -366h-82l-178 255c-14 20 -23 33.833 -27 41.5s-7.66699 14.167 -11 19.5c-3.33301 -3.33301 -7.5 -8.66602 -12.5 -15.999l-16.5 -25c-6 -9.33301 -10 -15.666 -12 -18.999l-180 -256h-78l259 366l-243 346h80l159 -228
c6 -8.66699 13.833 -21.167 23.5 -37.5s16.5 -27.5 20.5 -33.5c16.667 24 32 48 46 72l163 227h75z" />
    <glyph glyph-name="Y" unicode="Y" horiz-adv-x="611" 
d="M622 712l-282 -418v-294h-67v294l-283 418h81l199 -298l12.5 -19.5l14.5 -23.5l12 -20c11.333 21.333 23.333 41.333 36 60l200 301h77z" />
    <glyph glyph-name="Z" unicode="Z" horiz-adv-x="574" 
d="M552 712v-59l-470 -595h480v-58h-557v61l470 593h-437v58h514z" />
    <glyph glyph-name="bracketleft" unicode="[" horiz-adv-x="241" 
d="M238 722v-49h-103v-807h103v-50h-162v906h162z" />
    <glyph glyph-name="backslash" unicode="\" horiz-adv-x="333" 
d="M350 -17h-53l-312 746h52z" />
    <glyph glyph-name="bracketright" unicode="]" horiz-adv-x="241" 
d="M165 722v-906h-162v50h103v806h-103v50h162z" />
    <glyph glyph-name="asciicircum" unicode="^" horiz-adv-x="600" 
d="M106 297l168 415h53l167 -415h-57l-138 352l-135 -352h-58z" />
    <glyph glyph-name="underscore" unicode="_" horiz-adv-x="500" 
d="M0 -125v50h500v-50h-500z" />
    <glyph glyph-name="grave" unicode="`" horiz-adv-x="185" 
d="M47 734l104 -141h-50l-134 141h80z" />
    <glyph glyph-name="a" unicode="a" horiz-adv-x="519" 
d="M511 51l0.000976562 -47.999c-15.333 -5.33301 -32 -8 -50 -8c-27.333 0 -45.333 8.33301 -54 25s-13 39.667 -13 69c-43.333 -68.667 -108 -103 -194 -103c-52.667 0 -93.834 12.667 -123.501 38s-44.5 60.666 -44.5 105.999c0 92.667 63.667 145.667 191 159
c6.66699 0.666992 16 1.5 28 2.5s20.833 1.83301 26.5 2.5l22 2.5c9 1 15.667 1.83301 20 2.5s9.66602 1.66699 15.999 3s11.333 2.66602 15 3.99902s7.5 2.83301 11.5 4.5s7.66699 3.5 11 5.5c12 8 18 24.333 18 49c0 40.667 -11.333 69.334 -34 86.001s-56 25 -100 25
c-43.333 0 -76.5 -9.83301 -99.5 -29.5s-36.5 -50.167 -40.5 -91.5h-60c2.66699 55.333 22 98 58 128s85.667 45 149 45c58.667 0 104.834 -12.667 138.501 -38s50.5 -62 50.5 -110v-280c0 -13.333 0.333008 -22.833 1 -28.5s3.5 -11 8.5 -16s13.167 -7.5 24.5 -7.5
c8.66699 0 16.667 1 24 3zM391.001 280.001c-6 -6.66699 -15.833 -12.165 -29.5 -16.498s-26.167 -7.5 -37.5 -9.5s-30.666 -4.66699 -57.999 -8c-6.66699 -0.666992 -11.667 -1.33398 -15 -2.00098c-21.333 -2.66699 -38.833 -5.66699 -52.5 -9
s-29.334 -8.83301 -47.001 -16.5s-31 -18.334 -40 -32.001s-13.5 -30.5 -13.5 -50.5c0 -30 10.667 -53.833 32 -71.5s50 -26.5 86 -26.5c48.667 0 90 14.5 124 43.5s51 67.167 51 114.5v84z" />
    <glyph glyph-name="b" unicode="b" horiz-adv-x="574" 
d="M122 712l0.000976562 -295c15.333 36 39.166 63.833 71.499 83.5s69.5 29.5 111.5 29.5c70 0 125.833 -24.667 167.5 -74s62.5 -115.333 62.5 -198c0 -84 -21 -150.5 -63 -199.5s-98.667 -73.5 -170 -73.5c-44 0 -82 9.83301 -114 29.5s-55.333 48.167 -70 85.5v-100h-57
v712h61zM296.001 477c-54 0 -96.834 -19.833 -128.501 -59.5s-47.5 -93.167 -47.5 -160.5s16 -121 48 -161s75 -60 129 -60c52.667 0 94.834 20 126.501 60s47.5 93.667 47.5 161s-15.833 120.833 -47.5 160.5s-74.167 59.5 -127.5 59.5z" />
    <glyph glyph-name="c" unicode="c" horiz-adv-x="519" 
d="M491 184c-8.66699 -60 -31.8311 -108.17 -69.498 -144.503s-86.834 -54.5 -147.501 -54.5c-72 0 -129.667 24.333 -173 73s-65 113.334 -65 194.001c0 84 21.833 151.167 65.5 201.5s101.834 75.5 174.501 75.5c59.333 0 107.5 -15.667 144.5 -47
s59.167 -74.666 66.5 -129.999h-64c-16.667 83.333 -65.334 125 -146.001 125c-54 0 -96.833 -19.833 -128.5 -59.5s-47.5 -93.167 -47.5 -160.5s15.333 -120.833 46 -160.5s72 -59.5 124 -59.5c43.333 0 78.666 12.833 105.999 38.5s44.333 61.834 51 108.501h63z" />
    <glyph glyph-name="d" unicode="d" horiz-adv-x="574" 
d="M512 712l-0.00195312 -712h-57v101c-15.333 -38 -39.166 -66.833 -71.499 -86.5s-70.166 -29.5 -113.499 -29.5c-71.333 0 -127.833 24.5 -169.5 73.5s-62.5 115.167 -62.5 198.5c0 82.667 20.833 148.667 62.5 198s97.5 74 167.5 74c89.333 0 150.333 -37 183 -111v294
h61zM274.998 477c-52.667 0 -94.834 -19.832 -126.501 -59.499s-47.5 -92.834 -47.5 -159.501c0 -68 15.833 -122 47.5 -162s74.167 -60 127.5 -60c54.667 0 97.834 19.667 129.501 59s47.5 93.333 47.5 162c0 61.333 -15 113.333 -45 156s-74.333 64 -133 64z" />
    <glyph glyph-name="e" unicode="e" horiz-adv-x="519" 
d="M488 169c-11.333 -58 -36 -103.5 -74 -136.5s-86.667 -49.5 -146 -49.5c-71.333 0 -128.5 24.333 -171.5 73s-64.5 113.667 -64.5 195s21.833 147.833 65.5 199.5s100.167 77.5 169.5 77.5c72.667 0 128.5 -25.667 167.5 -77s58.5 -115 58.5 -191v-18h-397
c0 -59.333 14.5 -108.833 43.5 -148.5s72.5 -59.5 130.5 -59.5c84.667 0 137 45 157 135h61zM430 293c-3.33301 57.333 -19.667 102.167 -49 134.5s-68 48.5 -116 48.5c-52 0 -91.5 -17 -118.5 -51s-43.833 -78 -50.5 -132h334z" />
    <glyph glyph-name="f" unicode="f" horiz-adv-x="259" 
d="M272 713v-53.0029c-14 2 -28 3 -42 3c-14.667 0 -26.834 -1.66699 -36.501 -5s-17 -7.16602 -22 -11.499s-8.66699 -11.666 -11 -21.999s-3.66602 -18.833 -3.99902 -25.5s-0.5 -18 -0.5 -34v-51h103v-51h-103v-463h-63v463h-88v51h88v59
c0 48.667 9.83301 84.834 29.5 108.501s53.5 35.5 101.5 35.5c12.667 0 28.667 -1.33301 48 -4z" />
    <glyph glyph-name="g" unicode="g" 
d="M496 514v-485.999c0 -153.333 -76.667 -230 -230 -230c-62.667 0 -112.334 13.5 -149.001 40.5s-56.667 65.167 -60 114.5h63c10 -70.667 59.667 -106 149 -106c60.667 0 103.834 15.667 129.501 47s38.5 77.666 38.5 138.999v86c-34.667 -75.333 -94 -113 -178 -113
c-68 0 -122.167 23.167 -162.5 69.5s-60.5 108.166 -60.5 185.499c0 80.667 20.833 145.334 62.5 194.001s96.834 73 165.501 73c81.333 0 139.666 -37 174.999 -111v97h57zM267 474.001c-51.333 0 -92.168 -18.665 -122.501 -55.998s-45.5 -88 -45.5 -152
c0 -62.667 15 -112.667 45 -150s70.333 -56 121 -56c52.667 0 94.334 19.167 125.001 57.5s46 90.166 46 155.499c0 61.333 -15.333 110.166 -46 146.499s-71.667 54.5 -123 54.5z" />
    <glyph glyph-name="h" unicode="h" horiz-adv-x="537" 
d="M122 712c0 -170.667 -0.333008 -269 -1 -295c36.667 73.333 96 110 178 110c59.333 0 104.166 -16.167 134.499 -48.5s45.5 -78.5 45.5 -138.5v-340h-63v332c0 94.667 -44 142 -132 142c-55.333 0 -96.166 -18.833 -122.499 -56.5s-39.5 -86.5 -39.5 -146.5v-271h-62v712
h62z" />
    <glyph glyph-name="i" unicode="i" horiz-adv-x="185" 
d="M124 715v-103h-63v103h63zM124 514v-514h-63v514h63z" />
    <glyph glyph-name="j" unicode="j" horiz-adv-x="185" 
d="M127 514v-547.999c0 -28.667 -1.16699 -51.334 -3.5 -68.001s-7.33301 -33.167 -15 -49.5s-20.167 -28 -37.5 -35s-40 -10.5 -68 -10.5c-6.66699 0 -17 1 -31 3v52c7.33301 -0.666992 15.333 -1 24 -1c18 0 31.167 1.5 39.5 4.5s15.333 12.167 21 27.5s8.5 39 8.5 71v554
h62zM127 716.001v-103h-62v103h62z" />
    <glyph glyph-name="k" unicode="k" horiz-adv-x="500" 
d="M493 514l-220 -189l235 -325h-79l-205 282l-102 -87v-195h-60v712h60v-449l287 251h84z" />
    <glyph glyph-name="l" unicode="l" horiz-adv-x="185" 
d="M124 712v-712h-62v712h62z" />
    <glyph glyph-name="m" unicode="m" horiz-adv-x="833" 
d="M120 514l-0.00195312 -90.001c22 34.667 46.333 60.667 73 78s59.334 26 98.001 26c37.333 0 68.833 -8.83301 94.5 -26.5s43.167 -42.167 52.5 -73.5c35.333 66.667 92.333 100 171 100c46.667 0 85.834 -13.5 117.501 -40.5s47.5 -67.167 47.5 -120.5v-367h-63v350
c0 81.333 -39.667 122 -119 122c-45.333 0 -80.5 -14.167 -105.5 -42.5s-37.5 -66.5 -37.5 -114.5v-315h-62v345c0 84.667 -37.667 127 -113 127c-50 0 -87.5 -16.667 -112.5 -50s-37.5 -76.666 -37.5 -129.999v-292h-63v514h59z" />
    <glyph glyph-name="n" unicode="n" horiz-adv-x="537" 
d="M119 514l0.000976562 -97c21.333 38 46.166 66 74.499 84s64.166 27 107.499 27c53.333 0 96.333 -14.667 129 -44s49 -74 49 -134v-350h-63v330c0 95.333 -43.667 143 -131 143c-49.333 0 -88.666 -16.5 -117.999 -49.5s-44 -81.5 -44 -145.5v-278h-63v514h59z" />
    <glyph glyph-name="o" unicode="o" 
d="M279 529c74 0 132.833 -24.668 176.5 -74.001s65.5 -116 65.5 -200c0 -83.333 -21.667 -149.166 -65 -197.499s-102.333 -72.5 -177 -72.5s-134.167 24.5 -178.5 73.5s-66.5 115.167 -66.5 198.5c0 82.667 22.167 148.667 66.5 198s103.833 74 178.5 74zM278 475.999
c-54.667 0 -98.332 -19.8311 -130.999 -59.498s-49 -92.834 -49 -159.501c0 -68 16.167 -121.667 48.5 -161s76.833 -59 133.5 -59c54.667 0 98 19.667 130 59s48 92.666 48 159.999s-16.333 120.833 -49 160.5s-76.334 59.5 -131.001 59.5z" />
    <glyph glyph-name="p" unicode="p" horiz-adv-x="574" 
d="M120 514l0.00195312 -99c37.333 76 98.666 114 183.999 114c70 0 126.167 -25 168.5 -75s63.5 -116.333 63.5 -199c0 -81.333 -21 -146.833 -63 -196.5s-97.667 -74.5 -167 -74.5c-86.667 0 -147.334 37 -182.001 111v-287h-61v706h57zM296.002 477
c-54 0 -96.501 -19.667 -127.501 -59s-46.5 -93.333 -46.5 -162c0 -67.333 15.833 -120.666 47.5 -159.999s74.5 -59 128.5 -59c52.667 0 94.834 19.833 126.501 59.5s47.5 92.5 47.5 158.5c0 67.333 -15.833 121.166 -47.5 161.499s-74.5 60.5 -128.5 60.5z" />
    <glyph glyph-name="q" unicode="q" horiz-adv-x="574" 
d="M511 514l0.00195312 -705.001h-62c0 136.667 0.333008 232.334 1 287.001c-34.667 -73.333 -96 -110 -184 -110c-70 0 -125.5 24.167 -166.5 72.5s-61.5 113.833 -61.5 196.5c0 84 21.167 150.833 63.5 200.5s99.166 74.5 170.499 74.5
c85.333 0 145.666 -38 180.999 -114v98h58zM276.002 477.999c-53.333 0 -95.832 -20 -127.499 -60s-47.5 -94.333 -47.5 -163c0 -66.667 15.667 -119.5 47 -158.5s73.666 -58.5 126.999 -58.5c54 0 96.833 19.833 128.5 59.5s47.5 93.5 47.5 161.5s-15.5 121.5 -46.5 160.5
s-73.833 58.5 -128.5 58.5z" />
    <glyph glyph-name="r" unicode="r" horiz-adv-x="315" 
d="M323 522l0.000976562 -64.002c-2.66699 0 -5.83398 0.166992 -9.50098 0.5s-6.16699 0.5 -7.5 0.5c-38.667 0 -73.167 -11.167 -103.5 -33.5s-50.5 -51.833 -60.5 -88.5c-8 -31.333 -12 -73.666 -12 -126.999v-210h-62v514h59v-123c22 47.333 47.333 80.833 76 100.5
s68.667 29.834 120 30.501z" />
    <glyph glyph-name="s" unicode="s" horiz-adv-x="481" 
d="M429 364h-60.9941c-6 74.667 -52.333 112 -139 112c-36.667 0 -65.834 -7.66699 -87.501 -23s-32.5 -36 -32.5 -62c0 -12.667 2.33301 -23.667 7 -33s10 -16.833 16 -22.5s16.5 -11.167 31.5 -16.5s28 -9.5 39 -12.5s28.833 -7.16699 53.5 -12.5l53 -13
c13.333 -3.33301 29.833 -9.16602 49.5 -17.499s35.167 -17.333 46.5 -27s21.166 -22.667 29.499 -39s12.5 -34.833 12.5 -55.5c0 -47.333 -18.833 -85.5 -56.5 -114.5s-86.834 -43.5 -147.501 -43.5c-66 0 -117.333 16 -154 48s-55.667 77.333 -57 136h61
c0 -42.667 13.333 -75.334 40 -98.001s64 -34 112 -34c42 0 75.833 9.16699 101.5 27.5s38.5 42.5 38.5 72.5c0 16 -4.16699 30 -12.5 42s-19.5 21.5 -33.5 28.5s-27.833 12.667 -41.5 17s-28.167 8.16602 -43.5 11.499c-4.66699 0.666992 -8 1.33398 -10 2.00098
c-4.66699 1.33301 -15.334 3.83301 -32.001 7.5s-28.334 6.33398 -35.001 8.00098s-17.334 4.83398 -32.001 9.50098s-25.334 9 -32.001 13s-15.167 9.66699 -25.5 17s-18 15.166 -23 23.499s-9.33301 18.166 -13 29.499s-5.5 24 -5.5 38c0 44.667 16.833 80 50.5 106
s79.834 39 138.501 39s105.667 -14 141 -42s53 -68.667 53 -122z" />
    <glyph glyph-name="t" unicode="t" horiz-adv-x="296" 
d="M265 514l-0.000976562 -51.001h-106v-326c0 -17.333 0.333008 -29.5 1 -36.5s2.83398 -15.333 6.50098 -25s10.167 -16.167 19.5 -19.5s22 -5 38 -5c9.33301 0 23 1 41 3v-54c-20.667 -2.66699 -39 -4 -55 -4c-62 0 -97.667 19.667 -107 59
c-4 16.667 -6 54.334 -6 113.001v295h-91v51h91v157h62v-157h106z" />
    <glyph glyph-name="u" unicode="u" horiz-adv-x="537" 
d="M475 514l0.000976562 -514.001h-58v95c-38 -73.333 -98.333 -110 -181 -110c-54.667 0 -97.834 15.833 -129.501 47.5s-47.5 78.167 -47.5 139.5v342h63v-315c0 -53.333 9.83301 -93.166 29.5 -119.499s53.167 -39.5 100.5 -39.5c50 0 89.333 18.167 118 54.5
s43 81.5 43 135.5v284h62z" />
    <glyph glyph-name="v" unicode="v" horiz-adv-x="463" 
d="M459 514l-189 -514h-68l-198 514h67l120 -313c9.33301 -26 25 -72.333 47 -139c20 64 35.667 112 47 144l111 308h63z" />
    <glyph glyph-name="w" unicode="w" horiz-adv-x="741" 
d="M733 514l-166.999 -513.998h-68l-102 338c-8.66699 29.333 -17.334 63 -26.001 101c-9.33301 -38.667 -18 -72.334 -26 -101.001l-100 -338h-70l-167 514h68l98 -313c6 -18 18 -62.333 36 -133c20 80 31.333 125 34 135l92 311h72l98 -326
c6 -19.333 15.667 -59.333 29 -120c10.667 45.333 21 84.666 31 117.999l103 328h65z" />
    <glyph glyph-name="x" unicode="x" horiz-adv-x="481" 
d="M460 514l-182 -240l203 -274h-80l-137 188l-7.5 10.5l-9 13.5l-9.5 15c-7.33301 -12 -16 -24.667 -26 -38l-136 -189h-75l199 270l-184 244h80l111 -150c4 -4.66699 9.5 -12.5 16.5 -23.5l15.5 -24.5l33 48l114 150h74z" />
    <glyph glyph-name="y" unicode="y" horiz-adv-x="463" 
d="M460 514l-201.997 -533.001c-25.333 -68 -47.333 -114.333 -66 -139s-47.334 -37 -86.001 -37c-16.667 0 -35 1.66699 -55 5v55c18.667 -4.66699 33.667 -7 45 -7c25.333 0 44.5 9.33301 57.5 28s27.833 51 44.5 97c3.33301 9.33301 6 16.333 8 21l-207 510h69l139 -354
c5.33301 -14 15.666 -44.333 30.999 -91c17.333 56.667 27.666 89.334 30.999 98.001l127 347h64z" />
    <glyph glyph-name="z" unicode="z" horiz-adv-x="463" 
d="M432 514v-44l-340 -417h354v-53h-430v51l334 410h-312v53h394z" />
    <glyph glyph-name="braceleft" unicode="{" horiz-adv-x="333" 
d="M4 288c92.667 0 138.998 49.998 138.998 149.998v76c0 70.667 13.333 122.167 40 154.5s75 50.5 145 54.5v-35c-49.333 -2.66699 -82.666 -16.334 -99.999 -41.001s-26 -62.667 -26 -114v-65c0 -27.333 -1.5 -50.5 -4.5 -69.5s-8.66699 -38.167 -17 -57.5
s-21.5 -34.833 -39.5 -46.5s-40.667 -19.5 -68 -23.5c28.667 -5.33301 52.167 -13.666 70.5 -24.999s31.5 -26.5 39.5 -45.5s13.167 -37.667 15.5 -56s3.5 -42.166 3.5 -71.499v-55c0 -56.667 8.33301 -97.5 25 -122.5s50.334 -38.833 101.001 -41.5v-35
c-73.333 4.66699 -122.5 23.834 -147.5 57.501s-37.5 88.5 -37.5 164.5v63c0 52 -10 88.5 -30 109.5s-56.333 34.167 -109 39.5v35z" />
    <glyph glyph-name="bar" unicode="|" horiz-adv-x="222" 
d="M84 -214v1000h54v-1000h-54z" />
    <glyph glyph-name="braceright" unicode="}" horiz-adv-x="333" 
d="M328 253c-52.667 -5.33301 -89.002 -18.498 -109.002 -39.498s-30 -57.5 -30 -109.5v-63c0 -76 -12.5 -130.833 -37.5 -164.5s-74.167 -52.834 -147.5 -57.501v35c50.667 2.66699 84.334 16.5 101.001 41.5s25 65.833 25 122.5v55c0 29.333 1.16699 53.166 3.5 71.499
s7.5 37 15.5 56s21.167 34.167 39.5 45.5s41.833 19.666 70.5 24.999c-27.333 4 -50 11.833 -68 23.5s-31.167 27.167 -39.5 46.5s-14 38.5 -17 57.5s-4.5 42.167 -4.5 69.5v65c0 51.333 -8.66699 89.333 -26 114s-50.666 38.334 -99.999 41.001v35
c70 -4 118.333 -22.167 145 -54.5s40 -83.833 40 -154.5v-76c0 -100 46.333 -150 139 -150v-35z" />
    <glyph glyph-name="asciitilde" unicode="~" horiz-adv-x="600" 
d="M562 320c-3.33301 -36.667 -15.0029 -67.332 -35.0029 -91.999s-47.667 -37 -83 -37c-26 0 -71.333 11 -136 33c-3.33301 1.33301 -17.666 6.5 -42.999 15.5s-45.833 15.5 -61.5 19.5s-29.834 6 -42.501 6c-20.667 0 -38.667 -7.66699 -54 -23
s-24.666 -35.333 -27.999 -60h-39c7.33301 40 19.833 71.833 37.5 95.5s45.5 35.5 83.5 35.5c26.667 0 78.334 -13.333 155.001 -40c2.66699 -1.33301 12 -4.83301 28 -10.5l35.5 -12.5c7.66699 -2.66699 17.834 -5.33398 30.501 -8.00098s23.667 -4 33 -4
c43.333 0 71 27.333 83 82h36z" />
    <glyph glyph-name="sterling" unicode="&#xa3;" 
d="M514 475l-62.002 -0.00195312c-1.33301 58.667 -16.833 103.5 -46.5 134.5s-71.5 46.5 -125.5 46.5c-48.667 0 -88.167 -12.833 -118.5 -38.5s-45.5 -59.167 -45.5 -100.5c0 -9.33301 1 -18.833 3 -28.5s4 -18.167 6 -25.5s5.5 -16.166 10.5 -26.499s9 -18.333 12 -24
l14.5 -26.5l14 -25h160v-33h-142c14.667 -32 22 -62.667 22 -92c0 -62.667 -36.333 -125.334 -109 -188.001c43.333 20.667 80 31 110 31c26 0 54 -5 84 -15c46 -15.333 76.333 -23 91 -23c42 0 81.333 17.333 118 52l32 -47c-39.333 -40.667 -88.333 -61 -147 -61
c-9.33301 0 -18 0.333008 -26 1s-16.667 2.33398 -26 5.00098s-16.166 4.66699 -20.499 6s-12.666 4.16602 -24.999 8.49902s-20.833 7.16602 -25.5 8.49902c-30 10 -57 15 -81 15c-21.333 0 -39.666 -3.16699 -54.999 -9.5s-34.333 -17.166 -57 -32.499l-36 52
c74.667 56.667 112 118.334 112 185.001c0 32 -9 66.667 -27 104h-82v33h62c-13.333 24 -22.833 41.5 -28.5 52.5s-11.5 26.5 -17.5 46.5s-9 39.667 -9 59c0 56.667 21.167 102.834 63.5 138.501s97.166 53.5 164.499 53.5c75.333 0 133 -20.667 173 -62s60 -99.333 60 -174
z" />
    <glyph glyph-name="currency" unicode="&#xa4;" 
d="M51 162l62.998 63.001c-30.667 40.667 -46 84.334 -46 131.001c0 47.333 15 90.666 45 129.999l-63 64l34 34l63 -64c38 30 81.667 45 131 45c46.667 0 90.334 -14.667 131.001 -44l63 62l34 -34l-63 -63c30 -42.667 45 -86.334 45 -131.001c0 -46 -15.333 -89 -46 -129
l64 -65l-34 -34l-64 65c-37.333 -31.333 -80.666 -47 -129.999 -47c-46.667 0 -90 15.333 -130 46l-63 -63zM277.998 513.001c-43.333 0 -80.5 -15.333 -111.5 -46s-46.5 -68 -46.5 -112c0 -43.333 15.5 -80.5 46.5 -111.5s68.167 -46.5 111.5 -46.5s80.5 15.5 111.5 46.5
s46.5 68.167 46.5 111.5c0 44 -15.5 81.333 -46.5 112s-68.167 46 -111.5 46z" />
    <glyph glyph-name="brokenbar" unicode="&#xa6;" horiz-adv-x="222" 
d="M84 -89v250h54v-250h-54zM84 411v250h54v-250h-54z" />
    <glyph glyph-name="section" unicode="&#xa7;" 
d="M455 539l-61.001 0.000976562c-4.66699 83.333 -45.334 125 -122.001 125c-32 0 -58 -8.5 -78 -25.5s-30 -38.833 -30 -65.5c0 -11.333 2 -21.833 6 -31.5s8.16699 -17.834 12.5 -24.501s12.833 -14.5 25.5 -23.5s23 -16 31 -21s22.667 -13.333 44 -25l49 -27.5
c58.667 -34 97.334 -59.333 116.001 -76c41.333 -35.333 62 -75.333 62 -120c0 -32 -9.5 -60.5 -28.5 -85.5s-45.833 -44.5 -80.5 -58.5c38.667 -33.333 58 -71.333 58 -114c0 -44 -16.667 -80 -50 -108s-76.333 -42 -129 -42c-59.333 0 -105.5 16.5 -138.5 49.5
s-50.167 77.833 -51.5 134.5h62c2 -43.333 14 -76.166 36 -98.499s53.333 -33.5 94 -33.5c33.333 0 60.666 8.83301 81.999 26.5s32 40.5 32 68.5c0 12 -2.66699 23.333 -8 34s-11 19.834 -17 27.501s-16.833 17 -32.5 28l-38 26
c-9.66699 6.33301 -26.167 16.166 -49.5 29.499c-7.33301 4.66699 -13 8 -17 10c-5.33301 3.33301 -17.166 10 -35.499 20s-31.333 17.333 -39 22s-19 12.167 -34 22.5s-26.167 19.666 -33.5 27.999s-15.5 18.5 -24.5 30.5s-15.333 24.667 -19 38s-5.5 27.666 -5.5 42.999
c0 34.667 9.83301 64.334 29.5 89.001s46.167 43 79.5 55c-33.333 30.667 -50 65.334 -50 104.001c0 42.667 16 77.667 48 105s73 41 123 41c57.333 0 101.833 -15.333 133.5 -46s47.834 -74.334 48.501 -131.001zM187.999 435.001c-56.667 -26 -85 -61.665 -85 -106.998
c0 -22 7.66699 -42 23 -60s41.333 -38 78 -60l50 -29c23.333 -13.333 43.5 -25.333 60.5 -36s32.833 -21.334 47.5 -32.001c28 10 49.667 24 65 42s23 38.667 23 62c0 40.667 -35.333 82.667 -106 126l-67 39l-53 30c-12.667 7.33301 -24.667 15.666 -36 24.999z" />
    <glyph glyph-name="copyright" unicode="&#xa9;" horiz-adv-x="800" 
d="M400 720c101.333 0 187.833 -35.8311 259.5 -107.498s107.5 -158.167 107.5 -259.5c0 -100.667 -35.833 -186.834 -107.5 -258.501s-158.167 -107.5 -259.5 -107.5s-187.833 35.667 -259.5 107s-107.5 157.666 -107.5 258.999s35.833 187.833 107.5 259.5
s158.167 107.5 259.5 107.5zM400 685.002c-91.333 0 -169.5 -32.333 -234.5 -97s-97.5 -142.667 -97.5 -234c0 -92 32.5 -170.333 97.5 -235s143.167 -97 234.5 -97s169.5 32.333 234.5 97s97.5 142.667 97.5 234s-32.5 169.5 -97.5 234.5s-143.167 97.5 -234.5 97.5z
M577 278.002c-5.33301 -39.333 -23.665 -71.834 -54.998 -97.501s-68.333 -38.5 -111 -38.5c-56.667 0 -104 20.333 -142 61s-57 91.667 -57 153s18.167 112.333 54.5 153s81.833 61 136.5 61c46 0 85.167 -13.667 117.5 -41s50.166 -61.666 53.499 -102.999h-44
c-6 31.333 -20 56.333 -42 75s-49.333 28 -82 28c-41.333 0 -75.166 -15.833 -101.499 -47.5s-39.5 -72.5 -39.5 -122.5c0 -51.333 13.667 -93.5 41 -126.5s62.666 -49.5 105.999 -49.5c30.667 0 56.667 8.5 78 25.5s35.666 40.167 42.999 69.5h44z" />
    <glyph glyph-name="guillemotleft" unicode="&#xab;" horiz-adv-x="426" 
d="M354 423v-66l-94 -91l94 -90v-66l-134 124v62zM193 422v-65l-94 -91l94 -89v-67l-134 125v62z" />
    <glyph glyph-name="logicalnot" unicode="&#xac;" horiz-adv-x="600" 
d="M51 320v48h497v-231h-50v183h-447z" />
    <glyph glyph-name="registered" unicode="&#xae;" horiz-adv-x="400" 
d="M199 723c50.667 0 93.834 -17.833 129.501 -53.5s53.5 -78.834 53.5 -129.501s-17.833 -94 -53.5 -130s-78.834 -54 -129.501 -54c-50 0 -92.833 18 -128.5 54s-53.5 79.333 -53.5 130s17.833 93.834 53.5 129.501s78.5 53.5 128.5 53.5zM199 696
c-42.667 0 -79.167 -15.333 -109.5 -46s-45.5 -67.667 -45.5 -111c0 -42.667 15.167 -79.334 45.5 -110.001s66.833 -46 109.5 -46s79.334 15.333 110.001 46s46 67.334 46 110.001c0 43.333 -15.333 80.333 -46 111s-67.334 46 -110.001 46zM129 633h69c56 0 84 -18 84 -54
c0 -21.333 -11.333 -36 -34 -44c20.667 -10 31 -29.333 31 -58c0 -10.667 2 -20 6 -28h-33c-2 6.66699 -3.16699 13.5 -3.5 20.5s-0.833008 11.833 -1.5 14.5c-2.66699 18 -7.66699 28.833 -15 32.5s-22 5.5 -44 5.5h-28v-73h-31v184zM160 548l36 0.000976562
c36.667 0 55 10.333 55 31c0 7.33301 -1.66699 13 -5 17s-8.83301 6.66699 -16.5 8s-13 2.16602 -16 2.49902s-9.16699 0.5 -18.5 0.5h-35v-59z" />
    <glyph glyph-name="degree" unicode="&#xb0;" horiz-adv-x="400" 
d="M200 712c41.333 0 76.333 -14.333 105 -43s43 -63.667 43 -105s-14.333 -76.333 -43 -105s-63.667 -43 -105 -43s-76.333 14.333 -105 43s-43 63.667 -43 105s14.333 76.333 43 105s63.667 43 105 43zM200 664c-27.333 0 -50.833 -9.83301 -70.5 -29.5
s-29.5 -43.167 -29.5 -70.5c0 -28 9.83301 -51.667 29.5 -71s43.167 -29 70.5 -29s50.833 9.66699 70.5 29s29.5 43 29.5 71c0 27.333 -9.83301 50.833 -29.5 70.5s-43.167 29.5 -70.5 29.5z" />
    <glyph glyph-name="plusminus" unicode="&#xb1;" horiz-adv-x="600" 
d="M273 86v178h-222v48h222v177h53v-177h222v-48h-222v-178h-53zM51 -8v48h497v-48h-497z" />
    <glyph glyph-name="mu" unicode="&#xb5;" horiz-adv-x="537" 
d="M475 514l-0.000976562 -513.999h-58v95c-39.333 -73.333 -99.666 -110 -180.999 -110c-38 0 -75.667 11.667 -113 35v-227h-64v721h63v-305c0 -26.667 1.5 -48.834 4.5 -66.501s8.66699 -35 17 -52s21.5 -29.667 39.5 -38s41 -12.5 69 -12.5c40 0 72.5 10.667 97.5 32
s41.833 46.833 50.5 76.5s13 63.5 13 101.5v264h62z" />
    <glyph glyph-name="paragraph" unicode="&#xb6;" horiz-adv-x="600" 
d="M543 668h-52.999v-841h-54v841h-126v-841h-54v436c-64.667 3.33301 -115.334 24.333 -152.001 63s-55 90.667 -55 156c0 75.333 23.5 132.5 70.5 171.5s108.833 58.5 185.5 58.5h238v-44z" />
    <glyph glyph-name="periodcentered" unicode="&#xb7;" horiz-adv-x="278" 
d="M181 347v-103h-82v103h82z" />
    <glyph glyph-name="guillemotright" unicode="&#xbb;" horiz-adv-x="426" 
d="M233 423l134 -127v-60l-134 -125v65l94 90l-94 89v68zM72 422l133 -124v-61l-133 -126v65l94 91l-94 90v65z" />
    <glyph glyph-name="divide" unicode="&#xf7;" horiz-adv-x="600" 
d="M51 216v49h497v-49h-497zM264 13v100h70v-100h-70zM264 368v100h70v-100h-70z" />
    <glyph glyph-name="florin" unicode="&#x192;" 
d="M421 437l-8.99902 -48.999h-113l-69 -367c-8 -42 -16.167 -74 -24.5 -96s-19.5 -41 -33.5 -57c-24.667 -28.667 -61.334 -43 -110.001 -43c-14.667 0 -33 1.33301 -55 4l10 54c14 -2 27.333 -3 40 -3c34 0 58.333 10.667 73 32c14 19.333 26.667 58.666 38 117.999
l68 358h-101l10 49h101l19 102c10 52.667 24.333 91 43 115c26 34 66 51 120 51c22 0 42.667 -1.33301 62 -4l-11 -53c-16 2 -32 3 -48 3c-29.333 0 -51.833 -8.5 -67.5 -25.5s-27.5 -46.167 -35.5 -87.5l-20 -101h113z" />
    <glyph glyph-name="afii10023" unicode="&#x401;" horiz-adv-x="593" 
d="M453 882v-102h-65v102h65zM272 882v-102h-66v102h66zM566 712v-58h-426v-257h399v-57h-399v-282h430v-58h-498v712h494z" />
    <glyph glyph-name="afii10051" unicode="&#x402;" horiz-adv-x="750" 
d="M705 171c0 -85.333 -23.5 -155.833 -70.5 -211.5s-110.833 -83.5 -191.5 -83.5v59c128.667 8.66699 193 87.667 193 237c0 61.333 -14.833 110.833 -44.5 148.5s-70.5 56.5 -122.5 56.5c-57.333 0 -101.166 -18 -131.499 -54s-45.5 -88 -45.5 -156v-167h-68v653h-229v59
h566v-59h-269v-322h3c16 33.333 40.167 58.833 72.5 76.5s68.166 26.5 107.499 26.5c68.667 0 124.167 -24.5 166.5 -73.5s63.5 -112.167 63.5 -189.5z" />
    <glyph glyph-name="afii10052" unicode="&#x403;" horiz-adv-x="519" 
d="M138 0h-67v712h441v-59h-374v-653zM376 902l-126 -141h-50l99 141h77z" />
    <glyph glyph-name="afii10053" unicode="&#x404;" horiz-adv-x="704" 
d="M668 248c-11.333 -81.333 -44.332 -145.667 -98.999 -193s-122.667 -71 -204 -71c-98.667 0 -177.667 33.667 -237 101s-89 157.333 -89 270c0 105.333 29.5 194 88.5 266s140.167 108 243.5 108c72 0 136.5 -21.167 193.5 -63.5s89.5 -98.166 97.5 -167.499h-68
c-10.667 52.667 -36.334 94.5 -77.001 125.5s-90 46.5 -148 46.5c-72.667 0 -132.5 -24.833 -179.5 -74.5s-74.167 -115.834 -81.5 -198.501h386v-57h-388c3.33301 -90.667 28.5 -163 75.5 -217s108.833 -81 185.5 -81c64.667 0 117 18.667 157 56s65.667 87.333 77 150h67z
" />
    <glyph glyph-name="afii10054" unicode="&#x405;" horiz-adv-x="630" 
d="M569 507l-66 0.00585938c-2.66699 52.667 -21.5 92.834 -56.5 120.501s-82.167 41.5 -141.5 41.5c-56 0 -99.667 -11.667 -131 -35s-47 -56.333 -47 -99c0 -15.333 1.83301 -28.833 5.5 -40.5s10.334 -21.834 20.001 -30.501s18.667 -15.834 27 -21.501
s21.833 -11.334 40.5 -17.001s33.667 -10 45 -13s29.333 -7.16699 54 -12.5l65 -15c16.667 -4 35.667 -9.33301 57 -16s38.5 -13.334 51.5 -20.001s26.5 -15 40.5 -25s24.667 -21 32 -33s13.5 -26.167 18.5 -42.5s7.5 -34.5 7.5 -54.5
c0 -48.667 -13.5 -89.334 -40.5 -122.001s-59.833 -55.334 -98.5 -68.001s-81.667 -19 -129 -19c-88.667 0 -158.167 21.667 -208.5 65s-75.5 103 -75.5 179v6h65c0 -64.667 19.833 -113.334 59.5 -146.001s94.5 -49 164.5 -49c61.333 0 109.666 13 144.999 39s53 62 53 108
c0 44.667 -16.833 76.5 -50.5 95.5s-97.167 39.5 -190.5 61.5c-30 6.66699 -52.167 12 -66.5 16s-33.5 11 -57.5 21s-41.833 20.833 -53.5 32.5s-22.167 27.5 -31.5 47.5s-14 43.333 -14 70c0 60 22.167 107.5 66.5 142.5s104.833 52.5 181.5 52.5
c77.333 0 139 -18.5 185 -55.5s70.667 -91.5 74 -163.5z" />
    <glyph glyph-name="afii10055" unicode="&#x406;" horiz-adv-x="222" 
d="M145 712v-712h-68v712h68z" />
    <glyph glyph-name="afii10056" unicode="&#x407;" horiz-adv-x="222" 
d="M145 712v-712h-68v712h68zM234 882v-102h-65v102h65zM53 882v-102h-65v102h65z" />
    <glyph glyph-name="afii10057" unicode="&#x408;" horiz-adv-x="500" 
d="M430 712v-518.998c0 -139.333 -67 -209 -201 -209c-72 0 -124.167 18.333 -156.5 55s-48.5 91 -48.5 163c0 9.33301 0.333008 18.666 1 27.999h65v-21c0 -56.667 9.5 -99 28.5 -127s55.833 -42 110.5 -42c53.333 0 89 14.667 107 44s27 71.666 27 126.999v501h67z" />
    <glyph glyph-name="afii10058" unicode="&#x409;" horiz-adv-x="1000" 
d="M971 206c0 -63.333 -18.999 -113.5 -56.999 -150.5s-89.667 -55.5 -155 -55.5h-261v654h-256l-13 -419c-4.66699 -166.667 -54.667 -250 -150 -250c-24.667 0 -47.667 4.66699 -69 14v56c13.333 -8 35.666 -12 66.999 -12c27.333 0 48 17 62 51s22.333 94.333 25 181
l14 437h388v-300h193c65.333 0 117 -18.5 155 -55.5s57 -87.167 57 -150.5zM903.001 206c0 46 -14 82.167 -42 108.5s-67 39.5 -117 39.5h-178v-296h178c50 0 89 13.167 117 39.5s42 62.5 42 108.5z" />
    <glyph glyph-name="afii10059" unicode="&#x40a;" horiz-adv-x="1000" 
d="M489 354h-349v-354h-68v712h68v-300h349v300h68v-300h203c65.333 0 117 -18.5 155 -55.5s57 -87.167 57 -150.5s-19 -113.5 -57 -150.5s-89.667 -55.5 -155 -55.5h-271v354zM904 206c0 46 -14 82.167 -42 108.5s-67 39.5 -117 39.5h-188v-296h188
c50 0 89 13.167 117 39.5s42 62.5 42 108.5z" />
    <glyph glyph-name="afii10060" unicode="&#x40b;" horiz-adv-x="750" 
d="M450 434c39.333 0 73.3311 -4.16699 101.998 -12.5s51 -18.833 67 -31.5s28.833 -28.667 38.5 -48s15.834 -37.5 18.501 -54.5s4 -36.5 4 -58.5v-229h-68v225c0 14 -0.666992 26.667 -2 38s-5.16602 24.5 -11.499 39.5s-14.666 27.333 -24.999 37s-25.5 18 -45.5 25
s-43.667 10.5 -71 10.5c-26 0 -54.833 -4.66699 -86.5 -14s-57.834 -20 -78.501 -32v-329h-68v654h-229v58h566v-58h-269v-263c20 10.667 46.333 20.5 79 29.5s59 13.5 79 13.5z" />
    <glyph glyph-name="afii10061" unicode="&#x40c;" horiz-adv-x="648" 
d="M643 712l-321 -291l337 -421h-87l-298 375l-136 -124v-251h-67v712h67v-383c28 27.333 43.667 42.333 47 45l368 338h90zM436 902l-126 -141h-50l99 141h77z" />
    <glyph glyph-name="afii10062" unicode="&#x40e;" horiz-adv-x="593" 
d="M-7 712h73.002l233 -475l231 475h72l-284 -588c-27.333 -56.667 -54 -94 -80 -112s-58.667 -27 -98 -27c-22.667 0 -47.334 6 -74.001 18v58c19.333 -12 46 -18 80 -18c39.333 0 74.666 32.667 105.999 98l9 19zM162.002 886h38.998c3.33301 -25.333 14 -45.333 32 -60
s41.667 -22 71 -22c28.667 0 52.334 7.16699 71.001 21.5s30.334 34.5 35.001 60.5h39c-15.333 -86.667 -64 -130 -146 -130c-41.333 0 -73.833 11.167 -97.5 33.5s-38.167 54.5 -43.5 96.5z" />
    <glyph glyph-name="afii10145" unicode="&#x40f;" horiz-adv-x="704" 
d="M386 0v-192h-68v192h-246v712h68v-654h424v654h68v-712h-246z" />
    <glyph glyph-name="afii10017" unicode="&#x410;" horiz-adv-x="630" 
d="M354 714l284 -714h-75l-86 224h-326l-87 -224h-73l288 714h75zM456 279l-140 371l-144 -371h284z" />
    <glyph glyph-name="afii10018" unicode="&#x411;" horiz-adv-x="667" 
d="M621 206c0 -63.333 -19 -113.5 -57 -150.5s-89.667 -55.5 -155 -55.5h-337v712h493v-58h-425v-242h269c65.333 0 117 -18.5 155 -55.5s57 -87.167 57 -150.5zM553 206c0 46 -14 82.167 -42 108.5s-67 39.5 -117 39.5h-254v-296h254c50 0 89 13.167 117 39.5
s42 62.5 42 108.5z" />
    <glyph glyph-name="afii10019" unicode="&#x412;" horiz-adv-x="667" 
d="M72 712h305.001c64 0 117.167 -14.667 159.5 -44s63.5 -74 63.5 -134c0 -38 -11.833 -71.667 -35.5 -101s-52.834 -48 -87.501 -56c44 -8.66699 80.167 -27 108.5 -55s42.5 -67.333 42.5 -118c0 -66 -22.833 -116.5 -68.5 -151.5s-103.167 -52.5 -172.5 -52.5h-315v712z
M138.001 654l-0.000976562 -257h226c47.333 0 87.333 10 120 30s49 52.667 49 98c0 26.667 -5.16699 49 -15.5 67s-25.166 31.333 -44.499 40s-38.833 14.5 -58.5 17.5s-42.5 4.5 -68.5 4.5h-208zM138 342l-0.00195312 -284.001h213c28.667 0 53.834 1.66699 75.501 5
s43.334 9.83301 65.001 19.5s38.5 24.667 50.5 45s18 45.5 18 75.5c0 28.667 -6.16699 52.834 -18.5 72.501s-29.833 34 -52.5 43s-45 15.167 -67 18.5s-47 5 -75 5h-209z" />
    <glyph glyph-name="afii10020" unicode="&#x413;" horiz-adv-x="519" 
d="M138 0h-67v712h441v-58h-374v-654z" />
    <glyph glyph-name="afii10021" unicode="&#x414;" horiz-adv-x="704" 
d="M694 -192h-68v192h-552v-192h-68v250h65c18 33.333 33.5 67.5 46.5 102.5s23.167 73.167 30.5 114.5l17.5 101c4.33301 26 7.33301 63 9 111s2.5 78.5 2.5 91.5v92.5v41h442v-654h75v-250zM551 58l-0.00195312 595.998h-306v-13
c0 -57.333 -0.666992 -102.666 -2 -135.999s-4.66602 -79.166 -9.99902 -137.499s-15.666 -113 -30.999 -164s-35 -99.5 -59 -145.5h408z" />
    <glyph glyph-name="afii10022" unicode="&#x415;" horiz-adv-x="593" 
d="M566 712v-58h-426v-257h399v-57h-399v-282h430v-58h-498v712h494z" />
    <glyph glyph-name="afii10024" unicode="&#x416;" horiz-adv-x="990" 
d="M361 356l-281 -356h-88l321 406l-296 306h92l352 -374v374h68v-374l352 374h92l-296 -306l321 -406h-88l-281 356l-100 -104v-252h-68v252z" />
    <glyph glyph-name="afii10025" unicode="&#x417;" horiz-adv-x="630" 
d="M590 209c0 -18.667 -2.66699 -37.665 -8 -56.998s-14.666 -39.166 -27.999 -59.499s-29.833 -38.333 -49.5 -54s-45.167 -28.5 -76.5 -38.5s-66 -15 -104 -15c-88.667 0 -158.167 21.667 -208.5 65s-75.5 103 -75.5 179v6h65c0 -64.667 19.833 -113.334 59.5 -146.001
s94.5 -49 164.5 -49c58 0 104.667 16.167 140 48.5s53 72.166 53 119.499c0 40.667 -15.5 73.834 -46.5 99.501s-69.5 38.5 -115.5 38.5h-114v58h114c40.667 0 74.667 11 102 33s41 52.667 41 92c0 47.333 -16 83 -48 107s-73.667 36 -125 36
c-58.667 0 -106.167 -13.833 -142.5 -41.5s-55.833 -67.834 -58.5 -120.501h-66c3.33301 71.333 29 125.666 77 162.999s110.667 56 188 56c71.333 0 129.666 -16.333 174.999 -49s68 -81 68 -145c0 -35.333 -10.5 -66.833 -31.5 -94.5s-45.5 -46.5 -73.5 -56.5v-3
c38.667 -10 69 -29.667 91 -59s33 -67 33 -113z" />
    <glyph glyph-name="afii10026" unicode="&#x418;" horiz-adv-x="704" 
d="M72 0v712h68v-639l404 639h88v-712h-68v639l-404 -639h-88z" />
    <glyph glyph-name="afii10027" unicode="&#x419;" horiz-adv-x="704" 
d="M209 886h38.998c3.33301 -25.333 14 -45.333 32 -60s41.667 -22 71 -22c28.667 0 52.334 7.16699 71.001 21.5s30.334 34.5 35.001 60.5h39c-15.333 -86.667 -64 -130 -146 -130c-41.333 0 -73.833 11.167 -97.5 33.5s-38.167 54.5 -43.5 96.5zM71.998 0v712h68v-639
l404 639h88v-712h-68v639l-404 -639h-88z" />
    <glyph glyph-name="afii10028" unicode="&#x41a;" horiz-adv-x="648" 
d="M643 712l-321 -291l337 -421h-87l-298 375l-136 -124v-251h-67v712h67v-383l415 383h90z" />
    <glyph glyph-name="afii10029" unicode="&#x41b;" horiz-adv-x="667" 
d="M598 0h-68v654h-287l-13 -419c-4.66699 -166.667 -54.667 -250 -150 -250c-26.667 0 -50.667 4.66699 -72 14v56c12.667 -8 36 -12 70 -12c27.333 0 48 17 62 51s22.333 94.333 25 181l14 437h419v-712z" />
    <glyph glyph-name="afii10030" unicode="&#x41c;" horiz-adv-x="833" 
d="M763 712v-711.999h-65v430c0 69.333 2.66699 144 8 224c-14 -44 -29.667 -87 -47 -129l-210 -525h-61l-213 519c-14.667 35.333 -30.334 79 -47.001 131c5.33301 -78 8 -150.667 8 -218v-432h-65v712h92l207 -508c6.66699 -16.667 23 -61.334 49 -134.001
c3.33301 8.66699 10.333 28.667 21 60s19.334 55.333 26.001 72l204 510h93z" />
    <glyph glyph-name="afii10031" unicode="&#x41d;" horiz-adv-x="704" 
d="M632 712v-712h-68v344h-425v-344h-68v712h68v-310h425v310h68z" />
    <glyph glyph-name="afii10032" unicode="&#x41e;" horiz-adv-x="741" 
d="M370 729c99.333 0 180.167 -34.668 242.5 -104.001s93.5 -159.666 93.5 -270.999c0 -110.667 -31 -200.167 -93 -268.5s-143.333 -102.5 -244 -102.5c-100 0 -180.667 34.333 -242 103s-92 158.667 -92 270s30.833 201.333 92.5 270s142.5 103 242.5 103z
M369.001 669.999c-79.333 0 -143.501 -28.668 -192.501 -86.001s-73.5 -132.666 -73.5 -225.999c0 -95.333 24.333 -171.833 73 -229.5s113.334 -86.5 194.001 -86.5s145.5 28.667 194.5 86s73.5 133 73.5 227s-24.667 170 -74 228s-114.333 87 -195 87z" />
    <glyph glyph-name="afii10033" unicode="&#x41f;" horiz-adv-x="704" 
d="M632 712v-712h-68v654h-425v-654h-68v712h561z" />
    <glyph glyph-name="afii10034" unicode="&#x420;" horiz-adv-x="630" 
d="M75 712h305c68.667 0 123.167 -17.167 163.5 -51.5s60.5 -83.833 60.5 -148.5c0 -68 -20.333 -119.667 -61 -155s-95.667 -53 -165 -53h-235v-304h-68v712zM143 654l-0.000976562 -292.999h216c52.667 0 95.334 11.833 128.001 35.5s49 60.5 49 110.5
c0 49.333 -15 86.166 -45 110.499s-71.667 36.5 -125 36.5h-223z" />
    <glyph glyph-name="afii10035" unicode="&#x421;" horiz-adv-x="704" 
d="M671 273c-7.33301 -88 -38.834 -158.166 -94.501 -210.499s-126.167 -78.5 -211.5 -78.5c-98.667 0 -177.667 33.667 -237 101s-89 157.333 -89 270c0 105.333 29.5 194 88.5 266s140.167 108 243.5 108c72 0 136.5 -21.167 193.5 -63.5s89.5 -98.166 97.5 -167.499h-68
c-10.667 52.667 -36.334 94.5 -77.001 125.5s-90 46.5 -148 46.5c-78.667 0 -142.167 -28.833 -190.5 -86.5s-72.5 -133.834 -72.5 -228.501s23.833 -170.5 71.5 -227.5s110.834 -85.5 189.501 -85.5c68.667 0 123.334 21.167 164.001 63.5s65 98.166 73 167.499h67z" />
    <glyph glyph-name="afii10036" unicode="&#x422;" 
d="M562 712v-58h-250v-654h-68v654h-250v58h568z" />
    <glyph glyph-name="afii10037" unicode="&#x423;" horiz-adv-x="593" 
d="M-7 712h73.002l233 -475l231 475h72l-284 -588c-27.333 -56.667 -54 -94 -80 -112s-58.667 -27 -98 -27c-22.667 0 -47.334 6 -74.001 18v58c19.333 -12 46 -18 80 -18c39.333 0 74.666 32.667 105.999 98l9 19z" />
    <glyph glyph-name="afii10038" unicode="&#x424;" horiz-adv-x="750" 
d="M720 362c0 -88 -30.167 -156 -90.5 -204s-133.833 -72 -220.5 -72v-86h-68v86c-86.667 0 -160.167 24 -220.5 72s-90.5 116 -90.5 204c0 85.333 30 152 90 200s133.667 72 221 72v78h68v-78c87.333 0 161 -24 221 -72s90 -114.667 90 -200zM653 362
c0 70 -22 122.167 -66 156.5s-103.333 53.5 -178 57.5v-433c73.333 5.33301 132.333 25.833 177 61.5s67 88.167 67 157.5zM341 143v433c-74.667 -4 -134 -23.167 -178 -57.5s-66 -86.5 -66 -156.5c0 -69.333 22.333 -121.833 67 -157.5s103.667 -56.167 177 -61.5z" />
    <glyph glyph-name="afii10039" unicode="&#x425;" horiz-adv-x="574" 
d="M569 712l-243 -346.002l257 -366h-82l-178 255c-14 20 -23 33.833 -27 41.5s-7.66699 14.167 -11 19.5c-3.33301 -3.33301 -7.5 -8.66602 -12.5 -15.999l-16.5 -25c-6 -9.33301 -10 -15.666 -12 -18.999l-180 -256h-78l259 366l-243 346h80l159 -228
c6 -8.66699 13.833 -21.167 23.5 -37.5s16.5 -27.5 20.5 -33.5c16.667 24 32 48 46 72l163 227h75z" />
    <glyph glyph-name="afii10040" unicode="&#x426;" horiz-adv-x="722" 
d="M707 -192h-68v192h-567v712h68v-654h424v654h68v-654h75v-250z" />
    <glyph glyph-name="afii10041" unicode="&#x427;" horiz-adv-x="640" 
d="M500 340c-24 -6 -59.3281 -12.5 -105.995 -19.5s-84.334 -10.5 -113.001 -10.5c-39.333 0 -73.333 4.16699 -102 12.5s-51 18.833 -67 31.5s-28.833 28.667 -38.5 48s-15.834 37.5 -18.501 54.5s-4 36.5 -4 58.5v197h68v-193c0 -14 0.666992 -26.667 2 -38
s5.16602 -24.5 11.499 -39.5s14.666 -27.333 24.999 -37s25.5 -18 45.5 -25s43.667 -10.5 71 -10.5c73.333 0 148.666 9.66699 225.999 29v314h68v-712h-68v340z" />
    <glyph glyph-name="afii10042" unicode="&#x428;" horiz-adv-x="1044" 
d="M72 0v712h68v-654h348v654h68v-654h348v654h68v-712h-900z" />
    <glyph glyph-name="afii10043" unicode="&#x429;" horiz-adv-x="1062" 
d="M72 0v712h68v-654h348v654h68v-654h348v654h68v-654h75v-250h-68v192h-907z" />
    <glyph glyph-name="afii10044" unicode="&#x42a;" horiz-adv-x="785" 
d="M756 206c0 -63.333 -19 -113.5 -57 -150.5s-89.667 -55.5 -155 -55.5h-317v654h-232v58h300v-300h249c65.333 0 117 -18.5 155 -55.5s57 -87.167 57 -150.5zM688 206c0 46 -14 82.167 -42 108.5s-67 39.5 -117 39.5h-234v-296h234c50 0 89 13.167 117 39.5
s42 62.5 42 108.5z" />
    <glyph glyph-name="afii10045" unicode="&#x42b;" horiz-adv-x="841" 
d="M601 206c0 -63.333 -19 -113.5 -57 -150.5s-89.667 -55.5 -155 -55.5h-317v712h68v-300h249c65.333 0 117 -18.5 155 -55.5s57 -87.167 57 -150.5zM533 206c0 46 -14 82.167 -42 108.5s-67 39.5 -117 39.5h-234v-296h234c50 0 89 13.167 117 39.5s42 62.5 42 108.5z
M701 712h68v-712h-68v712z" />
    <glyph glyph-name="afii10046" unicode="&#x42c;" horiz-adv-x="630" 
d="M601 206c0 -63.333 -19 -113.5 -57 -150.5s-89.667 -55.5 -155 -55.5h-317v712h68v-300h249c65.333 0 117 -18.5 155 -55.5s57 -87.167 57 -150.5zM533 206c0 46 -14 82.167 -42 108.5s-67 39.5 -117 39.5h-234v-296h234c50 0 89 13.167 117 39.5s42 62.5 42 108.5z" />
    <glyph glyph-name="afii10047" unicode="&#x42d;" horiz-adv-x="704" 
d="M665 355c0 -112.667 -29.666 -202.666 -88.999 -269.999s-138.333 -101 -237 -101c-81.333 0 -149.333 23.667 -204 71s-87.667 111.666 -99 192.999h67c11.333 -62.667 37 -112.667 77 -150s92.333 -56 157 -56c76.667 0 138.5 27 185.5 81s72.167 126.333 75.5 217
h-378v57h376c-7.33301 82.667 -34.5 148.834 -81.5 198.501s-106.833 74.5 -179.5 74.5c-58 0 -107.333 -15.5 -148 -46.5s-66.334 -72.833 -77.001 -125.5h-68c8 69.333 40.5 125.166 97.5 167.499s121.5 63.5 193.5 63.5c103.333 0 184.5 -36 243.5 -108
s88.5 -160.667 88.5 -266z" />
    <glyph glyph-name="afii10048" unicode="&#x42e;" horiz-adv-x="1000" 
d="M629 729c99.333 0 180.167 -34.6689 242.5 -104.002s93.5 -159.666 93.5 -270.999c0 -110.667 -31 -200.167 -93 -268.5s-143.333 -102.5 -244 -102.5c-98 0 -177.5 33.167 -238.5 99.5s-92.833 153.5 -95.5 261.5h-156v-344h-68v712h68v-310h158
c8.66699 98.667 43.167 177.834 103.5 237.501s136.833 89.5 229.5 89.5zM628.001 669.998c-79.333 0 -143.501 -28.668 -192.501 -86.001s-73.5 -132.666 -73.5 -225.999c0 -95.333 24.333 -171.833 73 -229.5s113.334 -86.5 194.001 -86.5s145.5 28.667 194.5 86
s73.5 133 73.5 227s-24.667 170 -74 228s-114.333 87 -195 87z" />
    <glyph glyph-name="afii10049" unicode="&#x42f;" horiz-adv-x="630" 
d="M337 316l-245.001 -316h-88l245 316c-63.333 2 -113.5 20.5 -150.5 55.5s-55.5 82.833 -55.5 143.5c0 62 19.333 110.333 58 145s91.334 52 158.001 52h299v-712h-68v316h-153zM489.999 374v279.999h-216c-50.667 0 -90.5 -11.833 -119.5 -35.5
s-43.5 -58.167 -43.5 -103.5s14.5 -80.166 43.5 -104.499s68.833 -36.5 119.5 -36.5h216z" />
    <glyph glyph-name="afii10065" unicode="&#x430;" horiz-adv-x="519" 
d="M511 51l0.000976562 -47.999c-15.333 -5.33301 -32 -8 -50 -8c-27.333 0 -45.333 8.33301 -54 25s-13 39.667 -13 69c-43.333 -68.667 -108 -103 -194 -103c-52.667 0 -93.834 12.667 -123.501 38s-44.5 60.666 -44.5 105.999c0 92.667 63.667 145.667 191 159
c6.66699 0.666992 16 1.5 28 2.5s20.833 1.83301 26.5 2.5l22 2.5c9 1 15.667 1.83301 20 2.5s9.66602 1.66699 15.999 3s11.333 2.66602 15 3.99902s7.5 2.83301 11.5 4.5s7.66699 3.5 11 5.5c12 8 18 24.333 18 49c0 40.667 -11.333 69.334 -34 86.001s-56 25 -100 25
c-43.333 0 -76.5 -9.83301 -99.5 -29.5s-36.5 -50.167 -40.5 -91.5h-60c2.66699 55.333 22 98 58 128s85.667 45 149 45c58.667 0 104.834 -12.667 138.501 -38s50.5 -62 50.5 -110v-280c0 -13.333 0.333008 -22.833 1 -28.5s3.5 -11 8.5 -16s13.167 -7.5 24.5 -7.5
c8.66699 0 16.667 1 24 3zM391.001 280.001c-6 -6.66699 -15.833 -12.165 -29.5 -16.498s-26.167 -7.5 -37.5 -9.5s-30.666 -4.66699 -57.999 -8c-6.66699 -0.666992 -11.667 -1.33398 -15 -2.00098c-21.333 -2.66699 -38.833 -5.66699 -52.5 -9
s-29.334 -8.83301 -47.001 -16.5s-31 -18.334 -40 -32.001s-13.5 -30.5 -13.5 -50.5c0 -30 10.667 -53.833 32 -71.5s50 -26.5 86 -26.5c48.667 0 90 14.5 124 43.5s51 67.167 51 114.5v84z" />
    <glyph glyph-name="afii10066" unicode="&#x431;" 
d="M521 253c0 -80.667 -22.0029 -145.502 -66.0029 -194.502s-101.667 -73.5 -173 -73.5c-45.333 0 -84.166 8.5 -116.499 25.5s-57.166 40.667 -74.499 71s-29.666 63 -36.999 98s-11 73.833 -11 116.5c0 132.667 21.333 232 64 298c22.667 34.667 50.334 60 83.001 76
s74 25.667 124 29l48 3c25.333 1.33301 43 4 53 8s17 10.333 21 19h70c-5.33301 -29.333 -18.166 -49.666 -38.499 -60.999s-53.833 -18.666 -100.5 -21.999l-76 -5c-58 -4 -102.5 -25.167 -133.5 -63.5s-52.167 -97.166 -63.5 -176.499h3
c17.333 34.667 43.166 62.667 77.499 84s72.166 32 113.499 32c70 0 126.333 -23.833 169 -71.5s64 -111.834 64 -192.501zM457.997 252.998c0 62 -16.333 112.667 -49 152s-74 59 -124 59c-53.333 0 -96.5 -19.167 -129.5 -57.5s-49.5 -89.5 -49.5 -153.5
c0 -63.333 16.5 -115 49.5 -155s75.167 -60 126.5 -60s93.5 20 126.5 60s49.5 91.667 49.5 155z" />
    <glyph glyph-name="afii10067" unicode="&#x432;" horiz-adv-x="519" 
d="M485 144c0 -46.667 -16.001 -82.332 -48.001 -106.999s-77.667 -37 -137 -37h-241v514h241c52.667 0 93.334 -10.5 122.001 -31.5s43 -51.167 43 -90.5c0 -62 -29.667 -101.333 -89 -118v-2c72.667 -12.667 109 -55.334 109 -128.001zM401.999 376.002
c0 56.667 -36.333 85 -109 85h-171v-168h171c35.333 0 62.333 7.33301 81 22s28 35 28 61zM421.999 151.002c0 62 -43 93 -129 93h-171v-191h171c86 0 129 32.667 129 98z" />
    <glyph glyph-name="afii10068" unicode="&#x433;" horiz-adv-x="400" 
d="M406 461h-278v-461h-63v514h341v-53z" />
    <glyph glyph-name="afii10069" unicode="&#x434;" 
d="M546 -164h-63v164h-414v-164h-63v217h61c47.333 87.333 71 219 71 395v66h336v-461h72v-217zM411 53v408h-212v-34c0 -161.333 -22.333 -286 -67 -374h279z" />
    <glyph glyph-name="afii10070" unicode="&#x435;" horiz-adv-x="519" 
d="M488 169c-11.333 -58 -36 -103.5 -74 -136.5s-86.667 -49.5 -146 -49.5c-71.333 0 -128.5 24.333 -171.5 73s-64.5 113.667 -64.5 195s21.833 147.833 65.5 199.5s100.167 77.5 169.5 77.5c72.667 0 128.5 -25.667 167.5 -77s58.5 -115 58.5 -191v-18h-397
c0 -59.333 14.5 -108.833 43.5 -148.5s72.5 -59.5 130.5 -59.5c84.667 0 137 45 157 135h61zM430 293c-3.33301 57.333 -19.667 102.167 -49 134.5s-68 48.5 -116 48.5c-52 0 -91.5 -17 -118.5 -51s-43.833 -78 -50.5 -132h334z" />
    <glyph glyph-name="afii10072" unicode="&#x436;" horiz-adv-x="741" 
d="M262 258l-190 -258h-77l223 300l-201 214h85l237 -262v262h63v-261l237 261h85l-201 -214l223 -300h-77l-190 258l-77 -80v-178h-63v178z" />
    <glyph glyph-name="afii10073" unicode="&#x437;" horiz-adv-x="485" 
d="M38 365c8.66699 109.333 76 163.998 202 163.998c57.333 0 103.5 -11.167 138.5 -33.5s52.5 -57.5 52.5 -105.5c0 -28.667 -8.33301 -53.667 -25 -75s-36 -34.333 -58 -39v-2c28 -5.33301 51.667 -17.666 71 -36.999s29 -47.333 29 -84
c0 -53.333 -20 -94.666 -60 -123.999s-89 -44 -147 -44c-66 0 -117.167 15.667 -153.5 47s-56.166 74.333 -59.499 129h63c11.333 -82 61.666 -123 150.999 -123c52 0 88.333 10.833 109 32.5s31 48.5 31 80.5c0 28 -9 50.5 -27 67.5s-45.667 25.5 -83 25.5h-86v48h71
c31.333 0 57.333 8.33301 78 25s31 39.667 31 69c0 60 -42.333 90 -127 90c-86 0 -132.333 -37 -139 -111h-62z" />
    <glyph glyph-name="afii10074" unicode="&#x438;" horiz-adv-x="537" 
d="M478 0h-63v440l-278 -440h-78v514h63v-440l278 440h78v-514z" />
    <glyph glyph-name="afii10075" unicode="&#x439;" horiz-adv-x="537" 
d="M126 714h38.998c3.33301 -25.333 14 -45.333 32 -60s41.667 -22 71 -22c28.667 0 52.334 7.16699 71.001 21.5s30.334 34.5 35.001 60.5h39c-15.333 -86.667 -64 -130 -146 -130c-41.333 0 -73.833 11.167 -97.5 33.5s-38.167 54.5 -43.5 96.5zM477.998 0h-63v440
l-278 -440h-78v514h63v-440l278 440h78v-514z" />
    <glyph glyph-name="afii10076" unicode="&#x43a;" horiz-adv-x="500" 
d="M274 314l232 -314h-79l-199 271l-105 -97v-174h-63v514h63v-263l286 263h84z" />
    <glyph glyph-name="afii10077" unicode="&#x43b;" horiz-adv-x="537" 
d="M480 0h-63v461h-210l-9 -258c-2.66699 -74.667 -15 -129 -37 -163s-54.333 -51 -97 -51c-18.667 0 -37 3.66699 -55 11v51c12 -6 30.667 -9 56 -9c43.333 0 67 54.667 71 164l10 308h334v-514z" />
    <glyph glyph-name="afii10078" unicode="&#x43c;" horiz-adv-x="667" 
d="M609 0h-63v423h-3l-181 -423h-56l-181 423h-3v-423h-63v514h84l192 -443l190 443h84v-514z" />
    <glyph glyph-name="afii10079" unicode="&#x43d;" horiz-adv-x="537" 
d="M478 0h-63v242h-293v-242h-63v514h63v-219h293v219h63v-514z" />
    <glyph glyph-name="afii10080" unicode="&#x43e;" 
d="M279 529c74 0 132.833 -24.668 176.5 -74.001s65.5 -116 65.5 -200c0 -83.333 -21.667 -149.166 -65 -197.499s-102.333 -72.5 -177 -72.5s-134.167 24.5 -178.5 73.5s-66.5 115.167 -66.5 198.5c0 82.667 22.167 148.667 66.5 198s103.833 74 178.5 74zM278 475.999
c-54.667 0 -98.332 -19.8311 -130.999 -59.498s-49 -92.834 -49 -159.501c0 -68 16.167 -121.667 48.5 -161s76.833 -59 133.5 -59c54.667 0 98 19.667 130 59s48 92.666 48 159.999s-16.333 120.833 -49 160.5s-76.334 59.5 -131.001 59.5z" />
    <glyph glyph-name="afii10081" unicode="&#x43f;" horiz-adv-x="537" 
d="M478 0h-63v461h-293v-461h-63v514h419v-514z" />
    <glyph glyph-name="afii10082" unicode="&#x440;" horiz-adv-x="574" 
d="M120 514l0.00195312 -99c37.333 76 98.666 114 183.999 114c70 0 126.167 -25 168.5 -75s63.5 -116.333 63.5 -199c0 -81.333 -21 -146.833 -63 -196.5s-97.667 -74.5 -167 -74.5c-86.667 0 -147.334 37 -182.001 111v-287h-61v706h57zM296.002 477
c-54 0 -96.501 -19.667 -127.501 -59s-46.5 -93.333 -46.5 -162c0 -67.333 15.833 -120.666 47.5 -159.999s74.5 -59 128.5 -59c52.667 0 94.834 19.833 126.501 59.5s47.5 92.5 47.5 158.5c0 67.333 -15.833 121.166 -47.5 161.499s-74.5 60.5 -128.5 60.5z" />
    <glyph glyph-name="afii10083" unicode="&#x441;" horiz-adv-x="519" 
d="M491 184c-8.66699 -60 -31.8311 -108.17 -69.498 -144.503s-86.834 -54.5 -147.501 -54.5c-72 0 -129.667 24.333 -173 73s-65 113.334 -65 194.001c0 84 21.833 151.167 65.5 201.5s101.834 75.5 174.501 75.5c59.333 0 107.5 -15.667 144.5 -47
s59.167 -74.666 66.5 -129.999h-64c-16.667 83.333 -65.334 125 -146.001 125c-54 0 -96.833 -19.833 -128.5 -59.5s-47.5 -93.167 -47.5 -160.5s15.333 -120.833 46 -160.5s72 -59.5 124 -59.5c43.333 0 78.666 12.833 105.999 38.5s44.333 61.834 51 108.501h63z" />
    <glyph glyph-name="afii10084" unicode="&#x442;" horiz-adv-x="444" 
d="M445 461h-191v-461h-63v461h-191v53h445v-53z" />
    <glyph glyph-name="afii10085" unicode="&#x443;" horiz-adv-x="463" 
d="M460 514l-201.997 -533.001c-25.333 -68 -47.333 -114.333 -66 -139s-47.334 -37 -86.001 -37c-16.667 0 -35 1.66699 -55 5v55c18.667 -4.66699 33.667 -7 45 -7c25.333 0 44.5 9.33301 57.5 28s27.833 51 44.5 97c3.33301 9.33301 6 16.333 8 21l-207 510h69l139 -354
c5.33301 -14 15.666 -44.333 30.999 -91c17.333 56.667 27.666 89.334 30.999 98.001l127 347h64z" />
    <glyph glyph-name="afii10086" unicode="&#x444;" horiz-adv-x="800" 
d="M763 256c0 -83.333 -19.167 -149.333 -57.5 -198s-85.833 -73 -142.5 -73c-27.333 0 -52.666 6.33301 -75.999 19s-41 29.334 -53 50.001h-2v-246l-63 1v245c0 -0.666992 -0.666992 -0.666992 -2 0c-12 -20.667 -29.667 -37.334 -53 -50.001s-48.666 -19 -75.999 -19
c-56.667 0 -104.167 24.333 -142.5 73s-57.5 114.667 -57.5 198c0 88.667 17.667 156.667 53 204s84.666 71 147.999 71c58 0 100.667 -23.333 128 -70h2v251h63v-251h2c27.333 46.667 70 70 128 70c63.333 0 112.666 -23.667 147.999 -71s53 -115.333 53 -204zM700 256
c0 74.667 -14.332 130.333 -42.999 167s-65.667 55 -111 55c-32 0 -59 -10.333 -81 -31s-33 -47 -33 -79v-218c0 -33.333 11 -60.333 33 -81s49.333 -31 82 -31c47.333 0 84.666 18 111.999 54s41 90.667 41 164zM369.001 149.999l0.000976562 218.001
c0 32 -11 58.333 -33 79s-49 31 -81 31c-45.333 0 -82.333 -18.333 -111 -55s-43 -92.334 -43 -167.001c0 -73.333 13.667 -128 41 -164s64.666 -54 111.999 -54c32.667 0 60 10.333 82 31s33 47.667 33 81z" />
    <glyph glyph-name="afii10087" unicode="&#x445;" horiz-adv-x="481" 
d="M460 514l-182 -240l203 -274h-80l-137 188l-7.5 10.5l-9 13.5l-9.5 15c-7.33301 -12 -16 -24.667 -26 -38l-136 -189h-75l199 270l-184 244h80l111 -150c4 -4.66699 9.5 -12.5 16.5 -23.5l15.5 -24.5l33 48l114 150h74z" />
    <glyph glyph-name="afii10088" unicode="&#x446;" 
d="M546 -164h-63v164h-427v514h63v-461h293v461h63v-461h71v-217z" />
    <glyph glyph-name="afii10089" unicode="&#x447;" horiz-adv-x="500" 
d="M381 245c-56 -20.667 -114.667 -31 -176 -31c-54 0 -94.667 13.167 -122 39.5s-41 68.5 -41 126.5v134h63v-141c0 -23.333 3.16699 -42.5 9.5 -57.5s16 -25.5 29 -31.5s24.5 -9.66699 34.5 -11s23.333 -2 40 -2c58 0 112.333 10.333 163 31v212h63v-514h-63v245z" />
    <glyph glyph-name="afii10090" unicode="&#x448;" horiz-adv-x="789" 
d="M59 0v514h63v-461h241v461h63v-461h241v461h63v-514h-671z" />
    <glyph glyph-name="afii10091" unicode="&#x449;" horiz-adv-x="808" 
d="M56 0v514h63v-461h241v461h63v-461h241v461h63v-461h71v-217h-63v164h-679z" />
    <glyph glyph-name="afii10092" unicode="&#x44a;" horiz-adv-x="611" 
d="M169 461l-169 0.000976562v53h232v-202h195c50 0 89.667 -14 119 -42s44 -66 44 -114c0 -48.667 -14.667 -86.834 -44 -114.501s-69 -41.5 -119 -41.5h-258v461zM527 156.001c0 32.667 -10.167 58 -30.5 76s-48.5 27 -84.5 27h-180v-206h180c36.667 0 65 8.83301 85 26.5
s30 43.167 30 76.5z" />
    <glyph glyph-name="afii10093" unicode="&#x44b;" horiz-adv-x="667" 
d="M57 514l63 0.000976562v-202h167c50 0 89.667 -14 119 -42s44 -66 44 -114c0 -48.667 -14.667 -86.834 -44 -114.501s-69 -41.5 -119 -41.5h-230v514zM387 156.001c0 32.667 -10.167 58 -30.5 76s-48.5 27 -84.5 27h-152v-206h152c36.667 0 65 8.83301 85 26.5
s30 43.167 30 76.5zM547 514.001h63v-514h-63v514z" />
    <glyph glyph-name="afii10094" unicode="&#x44c;" horiz-adv-x="500" 
d="M59 514l63 0.000976562v-202h195c50 0 89.667 -14 119 -42s44 -66 44 -114c0 -48.667 -14.667 -86.834 -44 -114.501s-69 -41.5 -119 -41.5h-258v514zM417 156.001c0 32.667 -10.167 58 -30.5 76s-48.5 27 -84.5 27h-180v-206h180c36.667 0 65 8.83301 85 26.5
s30 43.167 30 76.5z" />
    <glyph glyph-name="afii10095" unicode="&#x44d;" horiz-adv-x="519" 
d="M483 252c0 -80.667 -21.6641 -145.334 -64.9971 -194.001s-101 -73 -173 -73c-57.333 0 -104.5 16.333 -141.5 49s-61.167 76.667 -72.5 132h63c9.33301 -41.333 27.333 -73.166 54 -95.499s60 -33.5 100 -33.5c48.667 0 88.167 17.833 118.5 53.5
s47.166 84.167 50.499 145.5h-236v53h236c-5.33301 58 -23.5 103.833 -54.5 137.5s-71.167 50.5 -120.5 50.5c-76.667 0 -124.334 -37.667 -143.001 -113h-65c9.33301 52 32.166 92.5 68.499 121.5s83.166 43.5 140.499 43.5c72.667 0 130.834 -25.167 174.501 -75.5
s65.5 -117.5 65.5 -201.5z" />
    <glyph glyph-name="afii10096" unicode="&#x44e;" horiz-adv-x="760" 
d="M483 529c74 0 132.835 -24.668 176.502 -74.001s65.5 -116 65.5 -200c0 -83.333 -21.667 -149.166 -65 -197.499s-102.333 -72.5 -177 -72.5c-72.667 0 -130.834 23.167 -174.501 69.5s-67.167 108.833 -70.5 187.5h-116v-242h-63v514h63v-219h118
c7.33301 72 32.666 129 75.999 171s99 63 167 63zM482.002 475.999c-54.667 0 -98.332 -19.8311 -130.999 -59.498s-49 -92.834 -49 -159.501c0 -68 16.167 -121.667 48.5 -161s76.833 -59 133.5 -59c54.667 0 98 19.667 130 59s48 92.666 48 159.999
s-16.333 120.833 -49 160.5s-76.334 59.5 -131.001 59.5z" />
    <glyph glyph-name="afii10097" unicode="&#x44f;" horiz-adv-x="519" 
d="M457 0h-62.998v216h-128l-181 -216h-82l191 218c-46.667 3.33301 -83.834 17.833 -111.501 43.5s-41.5 60.5 -41.5 104.5c0 45.333 14.167 81.333 42.5 108s66.166 40 113.499 40h260v-514zM394.002 461h-182c-34 0 -60.5 -8.5 -79.5 -25.5s-28.5 -40.5 -28.5 -70.5
s9.5 -53.5 28.5 -70.5s45.5 -25.5 79.5 -25.5h182v192z" />
    <glyph glyph-name="afii10071" unicode="&#x451;" horiz-adv-x="519" 
d="M383 712v-100h-65v100h65zM202 712v-100h-66v100h66zM488 169c-11.333 -58 -36 -103.5 -74 -136.5s-86.667 -49.5 -146 -49.5c-71.333 0 -128.5 24.333 -171.5 73s-64.5 113.667 -64.5 195s21.833 147.833 65.5 199.5s100.167 77.5 169.5 77.5
c72.667 0 128.5 -25.667 167.5 -77s58.5 -115 58.5 -191v-18h-397c0 -59.333 14.5 -108.833 43.5 -148.5s72.5 -59.5 130.5 -59.5c84.667 0 137 45 157 135h61zM430 293c-3.33301 57.333 -19.667 102.167 -49 134.5s-68 48.5 -116 48.5c-52 0 -91.5 -17 -118.5 -51
s-43.833 -78 -50.5 -132h334z" />
    <glyph glyph-name="afii10099" unicode="&#x452;" horiz-adv-x="537" 
d="M478 93c0 -77.333 -23.833 -143.331 -71.5 -197.998s-110.5 -83.334 -188.5 -86.001v59c60.667 3.33301 108.667 27 144 71s53 98.333 53 163v75c0 104 -43 156 -129 156c-48.667 0 -88.167 -16.333 -118.5 -49s-45.5 -75.334 -45.5 -128.001v-156h-63v461h-52v53h52v198
h63v-198h233v-53h-233v-179h2c30.667 69.333 88.667 104 174 104c120 0 180 -66.333 180 -199v-94z" />
    <glyph glyph-name="afii10100" unicode="&#x453;" horiz-adv-x="400" 
d="M396 461h-274v-461h-63v514h337v-53zM329 734l-126 -141h-51l100 141h77z" />
    <glyph glyph-name="afii10101" unicode="&#x454;" horiz-adv-x="519" 
d="M488 166c-11.333 -55.333 -35.4971 -99.333 -72.4971 -132s-84.167 -49 -141.5 -49c-72 0 -129.667 24.333 -173 73s-65 113.334 -65 194.001c0 84 21.833 151.167 65.5 201.5s101.834 75.5 174.501 75.5c57.333 0 104.166 -14.5 140.499 -43.5
s59.166 -69.5 68.499 -121.5h-65c-18.667 75.333 -66.334 113 -143.001 113c-49.333 0 -89.5 -16.833 -120.5 -50.5s-49.167 -79.5 -54.5 -137.5h241v-53h-241c3.33301 -61.333 20.166 -109.833 50.499 -145.5s69.833 -53.5 118.5 -53.5c40 0 73.333 11.167 100 33.5
s44.667 54.166 54 95.499h63z" />
    <glyph glyph-name="afii10102" unicode="&#x455;" horiz-adv-x="481" 
d="M429 364h-60.9941c-6 74.667 -52.333 112 -139 112c-36.667 0 -65.834 -7.66699 -87.501 -23s-32.5 -36 -32.5 -62c0 -12.667 2.33301 -23.667 7 -33s10 -16.833 16 -22.5s16.5 -11.167 31.5 -16.5s28 -9.5 39 -12.5s28.833 -7.16699 53.5 -12.5l53 -13
c13.333 -3.33301 29.833 -9.16602 49.5 -17.499s35.167 -17.333 46.5 -27s21.166 -22.667 29.499 -39s12.5 -34.833 12.5 -55.5c0 -47.333 -18.833 -85.5 -56.5 -114.5s-86.834 -43.5 -147.501 -43.5c-66 0 -117.333 16 -154 48s-55.667 77.333 -57 136h61
c0 -42.667 13.333 -75.334 40 -98.001s64 -34 112 -34c42 0 75.833 9.16699 101.5 27.5s38.5 42.5 38.5 72.5c0 16 -4.16699 30 -12.5 42s-19.5 21.5 -33.5 28.5s-27.833 12.667 -41.5 17s-28.167 8.16602 -43.5 11.499c-4.66699 0.666992 -8 1.33398 -10 2.00098
c-4.66699 1.33301 -15.334 3.83301 -32.001 7.5s-28.334 6.33398 -35.001 8.00098s-17.334 4.83398 -32.001 9.50098s-25.334 9 -32.001 13s-15.167 9.66699 -25.5 17s-18 15.166 -23 23.499s-9.33301 18.166 -13 29.499s-5.5 24 -5.5 38c0 44.667 16.833 80 50.5 106
s79.834 39 138.501 39s105.667 -14 141 -42s53 -68.667 53 -122z" />
    <glyph glyph-name="afii10103" unicode="&#x456;" horiz-adv-x="185" 
d="M124 715v-103h-63v103h63zM124 514v-514h-63v514h63z" />
    <glyph glyph-name="afii10104" unicode="&#x457;" horiz-adv-x="185" 
d="M124 514v-514h-63v514h63zM216 714v-102h-65v102h65zM35 714v-102h-66v102h66z" />
    <glyph glyph-name="afii10105" unicode="&#x458;" horiz-adv-x="185" 
d="M127 514v-547.999c0 -28.667 -1.16699 -51.334 -3.5 -68.001s-7.33301 -33.167 -15 -49.5s-20.167 -28 -37.5 -35s-40 -10.5 -68 -10.5c-6.66699 0 -17 1 -31 3v52c7.33301 -0.666992 15.333 -1 24 -1c18 0 31.167 1.5 39.5 4.5s15.333 12.167 21 27.5s8.5 39 8.5 71v554
h62zM127 716.001v-103h-62v103h62z" />
    <glyph glyph-name="afii10106" unicode="&#x459;" horiz-adv-x="778" 
d="M748 156c0 -48.667 -14.667 -86.833 -44 -114.5s-69 -41.5 -119 -41.5h-202v461h-176l-9 -258c-2.66699 -74.667 -15 -129 -37 -163s-54.333 -51 -97 -51c-18.667 0 -37 3.66699 -55 11v51c12 -6 30.667 -9 56 -9c43.333 0 67 54.667 71 164l10 308h300v-202h139
c50 0 89.667 -14 119 -42s44 -66 44 -114zM685 156.001c0 32.667 -10.167 58 -30.5 76s-48.5 27 -84.5 27h-124v-206h124c36.667 0 65 8.83301 85 26.5s30 43.167 30 76.5z" />
    <glyph glyph-name="afii10107" unicode="&#x45a;" horiz-adv-x="778" 
d="M746 156c0 -48.667 -14.667 -86.833 -44 -114.5s-69 -41.5 -119 -41.5h-208v259h-253v-259h-63v514h63v-202h253v202h63v-202h145c50 0 89.667 -14 119 -42s44 -66 44 -114zM683 156.001c0 32.667 -10.167 58 -30.5 76s-48.5 27 -84.5 27h-130v-206h130
c36.667 0 65 8.83301 85 26.5s30 43.167 30 76.5z" />
    <glyph glyph-name="afii10108" unicode="&#x45b;" horiz-adv-x="537" 
d="M7 461v53.001h52v198h63v-198h233v-53h-233v-179h2c30.667 69.333 88.667 104 174 104c120 0 180 -66.333 180 -199v-187h-63v177c0 104 -43 156 -129 156c-48.667 0 -88.167 -16.333 -118.5 -49s-45.5 -75.334 -45.5 -128.001v-156h-63v461h-52z" />
    <glyph glyph-name="afii10109" unicode="&#x45c;" horiz-adv-x="500" 
d="M274 314l234 -314h-79l-201 271l-105 -97v-174h-63v514h63v-263l286 263h84zM379 734l-126 -141h-51l100 141h77z" />
    <glyph glyph-name="afii10110" unicode="&#x45e;" horiz-adv-x="463" 
d="M460 514l-201.997 -533.001c-25.333 -68 -47.333 -114.333 -66 -139s-47.334 -37 -86.001 -37c-16.667 0 -35 1.66699 -55 5v55c18.667 -4.66699 33.667 -7 45 -7c25.333 0 44.5 9.33301 57.5 28s27.833 51 44.5 97c3.33301 9.33301 6 16.333 8 21l-207 510h69l139 -354
c5.33301 -14 15.666 -44.333 30.999 -91c17.333 56.667 27.666 89.334 30.999 98.001l127 347h64zM96.0029 713.999h38.998c3.33301 -25.333 14 -45.333 32 -60s41.667 -22 71 -22c28.667 0 52.334 7.16699 71.001 21.5s30.334 34.5 35.001 60.5h39
c-15.333 -86.667 -64 -130 -146 -130c-41.333 0 -73.833 11.167 -97.5 33.5s-38.167 54.5 -43.5 96.5z" />
    <glyph glyph-name="afii10193" unicode="&#x45f;" horiz-adv-x="537" 
d="M300 0v-164h-63v164h-178v514h63v-461h293v461h63v-514h-178z" />
    <glyph glyph-name="afii10050" unicode="&#x490;" horiz-adv-x="519" 
d="M512 654h-372v-654h-68v712h372v163h68v-221z" />
    <glyph glyph-name="afii10098" unicode="&#x491;" horiz-adv-x="400" 
d="M393 461h-271v-461h-63v514h271v157h63v-210z" />
    <glyph glyph-name="endash" unicode="&#x2013;" horiz-adv-x="500" 
d="M500 305v-61h-500v61h500z" />
    <glyph glyph-name="emdash" unicode="&#x2014;" horiz-adv-x="1000" 
d="M1000 305v-61h-1000v61h1000z" />
    <glyph glyph-name="quoteleft" unicode="&#x2018;" horiz-adv-x="278" 
d="M96 485v110.001c0 29.333 8 56.666 24 81.999s37.333 42 64 50v-43c-30 -17.333 -45 -49 -45 -95h39v-104h-82z" />
    <glyph glyph-name="quoteright" unicode="&#x2019;" horiz-adv-x="278" 
d="M181 712v-110.001c0 -29.333 -8 -56.666 -24 -81.999s-37.333 -42 -64 -50v43c30 17.333 45 49 45 95h-39v104h82z" />
    <glyph glyph-name="quotesinglbase" unicode="&#x201a;" horiz-adv-x="278" 
d="M181 104v-110.001c0 -29.333 -8 -56.666 -24 -81.999s-37.333 -42 -64 -50v42c30 19.333 45 51.333 45 96h-39v104h82z" />
    <glyph glyph-name="quotedblleft" unicode="&#x201c;" horiz-adv-x="370" 
d="M222 487v86c0 78.667 28 129.667 84 153v-42c-29.333 -17.333 -44 -49.333 -44 -96h38v-101h-78zM69 487v86c0 78.667 28 129.667 84 153v-42c-29.333 -17.333 -44 -49.333 -44 -96h38v-101h-78z" />
    <glyph glyph-name="quotedblright" unicode="&#x201d;" horiz-adv-x="370" 
d="M146 712v-86c0 -78.667 -28 -129.667 -84 -153v42c29.333 17.333 44 49.333 44 96h-38v101h78zM299 712v-86c0 -78.667 -28 -129.667 -84 -153v42c29.333 17.333 44 49.333 44 96h-38v101h78z" />
    <glyph glyph-name="quotedblbase" unicode="&#x201e;" horiz-adv-x="370" 
d="M146 101v-86c0 -78.667 -28 -129.667 -84 -153v42c29.333 17.333 44 49.333 44 96h-38v101h78zM299 101v-86c0 -78.667 -28 -129.667 -84 -153v42c29.333 17.333 44 49.333 44 96h-38v101h78z" />
    <glyph glyph-name="dagger" unicode="&#x2020;" 
d="M508 492v-54h-202v-589h-59v589h-199v54h199v220h59v-220h202z" />
    <glyph glyph-name="daggerdbl" unicode="&#x2021;" 
d="M508 514v-54h-202v-359h202v-54h-202v-196h-59v196h-199v54h199v359h-199v54h199v198h59v-198h202z" />
    <glyph glyph-name="bullet" unicode="&#x2022;" horiz-adv-x="500" 
d="M250 534c49.333 0 91.333 -17.333 126 -52s52 -76.667 52 -126s-17.333 -91.333 -52 -126s-76.667 -52 -126 -52s-91.333 17.333 -126 52s-52 76.667 -52 126s17.333 91.333 52 126s76.667 52 126 52z" />
    <glyph glyph-name="ellipsis" unicode="&#x2026;" horiz-adv-x="1000" 
d="M132 0v100h70v-100h-70zM465 0v100h70v-100h-70zM798 0v100h70v-100h-70z" />
    <glyph glyph-name="perthousand" unicode="&#x2030;" horiz-adv-x="1111" 
d="M634 728l-471 -761h-49l473 761h47zM548 327c47.333 0 83.999 -14.332 109.999 -42.999s39 -69 39 -121c0 -56 -12.667 -99 -38 -129s-61.666 -45 -108.999 -45c-49.333 0 -86.833 14.167 -112.5 42.5s-38.5 70.166 -38.5 125.499c0 54.667 12.833 96.667 38.5 126
s62.5 44 110.5 44zM901.999 328.001c48.667 0 85.668 -15 111.001 -45s38 -70.333 38 -121c0 -54.667 -13.167 -97.167 -39.5 -127.5s-62.833 -45.5 -109.5 -45.5c-48.667 0 -85.834 14.333 -111.501 43s-38.5 70 -38.5 124c0 55.333 13 97.833 39 127.5s63 44.5 111 44.5z
M212 708.001c47.333 0 84.001 -14.6689 110.001 -44.002s39 -70.666 39 -123.999s-13.333 -95.166 -40 -125.499s-63.667 -45.5 -111 -45.5s-83.833 14.667 -109.5 44s-38.5 71 -38.5 125s13.167 95.833 39.5 125.5s63.166 44.5 110.499 44.5zM548.001 285.999
c-63.333 0 -95 -44.001 -95 -132.001c0 -82 32 -123 96 -123c62.667 0 94 43 94 129c0 40.667 -8.16699 71.834 -24.5 93.501s-39.833 32.5 -70.5 32.5zM902.001 285.998c-31.333 0 -55.333 -11.167 -72 -33.5s-25 -54.166 -25 -95.499
c0 -40.667 8.33301 -71.834 25 -93.501s40.667 -32.5 72 -32.5c62.667 0 94 43 94 129c0 84 -31.333 126 -94 126zM212.001 665.998c-30.667 0 -54.334 -11.333 -71.001 -34s-25 -55 -25 -97c0 -82.667 31.667 -124 95 -124c30.667 0 54.334 10.833 71.001 32.5
s25 53.167 25 94.5s-8.16699 73 -24.5 95s-39.833 33 -70.5 33z" />
    <glyph glyph-name="guilsinglleft" unicode="&#x2039;" horiz-adv-x="259" 
d="M186 422v-67l-93 -89l93 -89v-67l-133 125v62z" />
    <glyph glyph-name="guilsinglright" unicode="&#x203a;" horiz-adv-x="259" 
d="M74 423l132 -125v-63l-132 -124v67l93 89l-93 89v67z" />
    <glyph glyph-name="afii61352" unicode="&#x2116;" horiz-adv-x="968" 
d="M933 277c0 -44 -12.832 -79.167 -38.499 -105.5s-59.834 -39.5 -102.501 -39.5c-43.333 0 -77.333 12.667 -102 38s-37 61 -37 107c0 45.333 12.333 80.833 37 106.5s58 38.5 100 38.5c44 0 78.833 -13 104.5 -39s38.5 -61.333 38.5 -106zM934.001 0h-280v53h280v-53z
M593.001 0h-76l-376 581h-2v-581h-68v691h76l376 -581h2v581h68v-691zM881.001 277c0 30.667 -8.33398 55.167 -25.001 73.5s-37.667 27.5 -63 27.5s-46.333 -9.16699 -63 -27.5s-25 -42.833 -25 -73.5c0 -30 8.33301 -54.333 25 -73s37 -28 61 -28
c26.667 0 48.334 9.16699 65.001 27.5s25 42.833 25 73.5z" />
    <glyph glyph-name="trademark" unicode="&#x2122;" horiz-adv-x="990" 
d="M244 356v319h-125v37h291v-37h-125v-319h-41zM476 356v356h62l113 -295l113 295h60v-356h-37v315l-120 -315h-35l-119 315v-315h-37z" />
    <glyph glyph-name="Delta" unicode="&#x2206;" horiz-adv-x="667" 
d="M364 712l288 -712h-636l285 712h63zM93 52h479l-240 608z" />
    <glyph glyph-name="radical" unicode="&#x221a;" horiz-adv-x="600" 
d="M508 786l-210 -1000h-55l-168 346l-45 -22l-19 40l88 44l166 -347l194 939h49z" />
    <glyph glyph-name="infinity" unicode="&#x221e;" horiz-adv-x="722" 
d="M362 276c2 2 10.499 9.99707 25.499 23.9971s24.833 23 29.5 27s13.834 11.333 27.501 22s24.834 17.834 33.501 21.501s19.334 7.5 32.001 11.5s25 6 37 6c39.333 0 71.666 -13 96.999 -39s38 -59.333 38 -100c0 -41.333 -12.333 -74.833 -37 -100.5
s-56.334 -38.5 -95.001 -38.5c-28.667 0 -56.667 7.66699 -84 23s-62 42.666 -104 81.999l-40.5 -34c-23 -19.333 -39.167 -32 -48.5 -38s-23.666 -13 -42.999 -21s-38.666 -12 -57.999 -12c-38.667 0 -70.334 12.667 -95.001 38s-37 58 -37 98
c0 40.667 12.333 74.334 37 101.001s56 40 94 40c8.66699 0 17.834 -1.16699 27.501 -3.5s18.167 -4.66602 25.5 -6.99902s16.166 -6.66602 26.499 -12.999l23.5 -14.5c5.33301 -3.33301 13.666 -9.66602 24.999 -18.999l21.5 -17.5c3 -2.33301 10.5 -8.83301 22.5 -19.5
s18.333 -16.334 19 -17.001zM394.999 245.997l47.002 -41.002c12.667 -10.667 29.5 -21.167 50.5 -31.5s40.833 -15.5 59.5 -15.5c24.667 0 44.5 8.16699 59.5 24.5s22.5 37.5 22.5 63.5c0 28.667 -7.66699 51.5 -23 68.5s-36 25.5 -62 25.5
c-6.66699 0 -13.834 -1 -21.501 -3s-14.5 -4.16699 -20.5 -6.5s-13.167 -6.16602 -21.5 -11.499s-14.833 -9.66602 -19.5 -12.999s-11.334 -8.5 -20.001 -15.5s-14.667 -12 -18 -15l-18 -16c-8.66699 -7.66699 -13.667 -12.167 -15 -13.5zM328.001 245.995
c-0.666992 0.666992 -5.83203 5.00098 -15.499 13.001l-18.5 15.5c-2.66699 2.33301 -8.83398 7.33301 -18.501 15s-16.834 13 -21.501 16l-20 12.5c-8.66699 5.33301 -16.167 9.16602 -22.5 11.499s-13.166 4.5 -20.499 6.5s-14.333 3 -21 3
c-23.333 0 -42.833 -8.66699 -58.5 -26s-23.5 -39.333 -23.5 -66s7.83301 -48.167 23.5 -64.5s36.5 -24.5 62.5 -24.5c44 0 95.333 29.333 154 88z" />
    <glyph glyph-name="approxequal" unicode="&#x2248;" horiz-adv-x="600" 
d="M557 400c-3.33301 -36.667 -15.0029 -67.332 -35.0029 -91.999s-47.667 -37 -83 -37c-26 0 -71.333 11 -136 33c-3.33301 1.33301 -17.666 6.5 -42.999 15.5s-45.833 15.5 -61.5 19.5s-29.834 6 -42.501 6c-20.667 0 -38.667 -7.66699 -54 -23
s-24.666 -35.333 -27.999 -60h-39c7.33301 40 19.833 71.833 37.5 95.5s45.5 35.5 83.5 35.5c26.667 0 78.334 -13.333 155.001 -40c2.66699 -1.33301 12 -4.83301 28 -10.5l35.5 -12.5c7.66699 -2.66699 17.834 -5.33398 30.501 -8.00098s23.667 -4 33 -4
c43.333 0 71 27.333 83 82h36zM556.997 239.002c-3.33301 -36.667 -15.0029 -67.332 -35.0029 -91.999s-47.667 -37 -83 -37c-26 0 -71.333 11 -136 33c-3.33301 1.33301 -17.666 6.5 -42.999 15.5s-45.833 15.5 -61.5 19.5s-29.834 6 -42.501 6
c-20.667 0 -38.667 -7.66699 -54 -23s-24.666 -35.333 -27.999 -60h-39c7.33301 40 19.833 71.833 37.5 95.5s45.5 35.5 83.5 35.5c26.667 0 78.334 -13.333 155.001 -40c2.66699 -1.33301 12 -4.83301 28 -10.5l35.5 -12.5
c7.66699 -2.66699 17.834 -5.33398 30.501 -8.00098s23.667 -4 33 -4c43.333 0 71 27.333 83 82h36z" />
    <glyph glyph-name="notequal" unicode="&#x2260;" horiz-adv-x="600" 
d="M233 185l71 135h-253v48h280l77 145l42 -22l-66 -123h164v-48h-190l-72 -135h262v-48h-288l-75 -141l-42 23l64 118h-156v48h182z" />
    <glyph glyph-name="lessequal" unicode="&#x2264;" horiz-adv-x="600" 
d="M52 260v54l497 193v-54l-431 -166l431 -166v-53zM52 23h497v-48h-497v48z" />
    <glyph glyph-name="greaterequal" unicode="&#x2265;" horiz-adv-x="600" 
d="M548 260l-497 -192v53l430 166l-430 166v54l497 -193v-54zM548 23v-48h-497v48h497z" />
    <glyph glyph-name="hyphenminus" unicode="&#xe000;" horiz-adv-x="370" 
d="M311 305v-61h-251v61h251z" />
    <glyph glyph-name="nbspace" unicode="&#xe001;" horiz-adv-x="278" 
 />
    <glyph glyph-name=".null" horiz-adv-x="0" 
 />
    <glyph glyph-name="nonmarkingreturn" horiz-adv-x="333" 
 />
    </font>
</defs>
</svg>
